<svg width="24" height="24" viewBox="0 0 24 24" fill="none" xmlns="http://www.w3.org/2000/svg">
<g id="Frame" clip-path="url(#clip0_2_811)">
<g id="Group">
<path id="Vector" d="M23.5933 19.5257C23.5933 21.9988 18.3136 24 11.7973 24C5.28094 24 0.0012207 21.9988 0.0012207 19.5257C0.0012207 18.2931 1.31107 17.1746 3.43848 16.3651C3.76042 16.8335 4.12241 17.2732 4.52039 17.679C4.5936 17.7563 4.66686 17.8295 4.74411 17.8985C4.89059 18.045 5.0411 18.1792 5.19563 18.3094C5.2037 18.3177 5.20773 18.3257 5.21598 18.3297C5.3542 18.4479 5.49243 18.5617 5.63891 18.6674C5.67223 18.6957 5.70758 18.7216 5.74475 18.7446C5.89122 18.8585 6.04173 18.9644 6.19627 19.066C6.21839 19.0812 6.2415 19.0947 6.26527 19.1066C6.38741 19.1921 6.50933 19.2654 6.63551 19.3386C6.73713 19.4036 6.84297 19.4605 6.94876 19.5175C7.09107 19.599 7.2375 19.672 7.388 19.7412C7.50593 19.8021 7.63211 19.8551 7.75408 19.9121C7.94115 19.9933 8.13234 20.0666 8.32363 20.1358C8.42928 20.1724 8.53108 20.209 8.63673 20.2416C8.78321 20.2903 8.92969 20.3352 9.0802 20.3758C9.08882 20.381 9.09848 20.3837 9.1086 20.3839C9.11188 20.387 9.11629 20.3885 9.12083 20.3879C9.21842 20.4165 9.32004 20.4408 9.42185 20.4611C9.42526 20.4651 9.42976 20.4681 9.43481 20.4695C9.43986 20.471 9.44523 20.4709 9.45025 20.4694C9.55195 20.4982 9.65519 20.5212 9.75947 20.5384C9.79777 20.5505 9.83728 20.5587 9.8774 20.5629C9.98727 20.5833 10.0971 20.6036 10.211 20.6199C10.5235 20.6716 10.8385 20.7068 11.1547 20.7255C11.2156 20.7296 11.2766 20.7338 11.3335 20.7338C11.6425 20.7499 11.952 20.7499 12.2609 20.7338C12.3179 20.7338 12.3788 20.7296 12.44 20.7255C12.7562 20.7068 13.0712 20.6716 13.3837 20.6199C13.4976 20.6036 13.6074 20.5833 13.7171 20.5629C13.7572 20.5587 13.7967 20.5505 13.8352 20.5384C13.9394 20.5212 14.0426 20.4981 14.1443 20.4694C14.1545 20.4725 14.1657 20.4694 14.1728 20.4611C14.2741 20.4411 14.3745 20.4167 14.4736 20.3879C14.4758 20.3882 14.4781 20.388 14.4802 20.3873C14.4823 20.3866 14.4843 20.3854 14.4859 20.3839C14.496 20.3837 14.5057 20.3809 14.5145 20.3758C14.665 20.3352 14.8113 20.2903 14.9578 20.2416C15.0636 20.209 15.1652 20.1724 15.271 20.1358C15.4622 20.0666 15.6533 19.9933 15.8405 19.912C15.9624 19.8551 16.0886 19.8022 16.2065 19.7412C16.357 19.672 16.5034 19.599 16.6459 19.5175C16.7515 19.4605 16.8574 19.4036 16.959 19.3386C17.0851 19.2654 17.2071 19.1921 17.3292 19.1066C17.3532 19.0946 17.3763 19.0811 17.3984 19.066C17.553 18.9644 17.7035 18.8585 17.8498 18.7446C17.8869 18.7215 17.9223 18.6957 17.9556 18.6674C18.1021 18.5617 18.2403 18.4478 18.3785 18.3297C18.3868 18.3257 18.3908 18.3177 18.3991 18.3094C18.5536 18.1792 18.7041 18.045 18.8504 17.8985C18.9278 17.8295 19.0009 17.7563 19.0741 17.679C19.4721 17.2731 19.8342 16.8335 20.1562 16.3651C22.2834 17.1746 23.5933 18.2931 23.5933 19.5257V19.5257Z" fill="#71C285"/>
<path id="Vector_2" d="M20.7459 19.5257C20.7459 17.9531 16.7394 16.6784 11.7973 16.6784C6.85499 16.6784 2.84851 17.9531 2.84851 19.5257C2.84851 21.0981 6.85499 22.373 11.7973 22.373C16.7394 22.373 20.7459 21.0981 20.7459 19.5257Z" fill="#4C8056"/>
<path id="Vector_3" d="M21.5432 13.4771C21.5105 13.583 21.4782 13.6886 21.4415 13.7944C21.3764 14.0059 21.2991 14.2133 21.2137 14.4168C21.1731 14.5184 21.1282 14.616 21.0836 14.7178C21.0398 14.8178 20.9937 14.9169 20.9453 15.0148C20.8721 15.1733 20.7906 15.3279 20.7053 15.4824C20.6524 15.5802 20.5954 15.6778 20.5385 15.7754C20.4206 15.9746 20.2944 16.1739 20.1562 16.3651C19.8341 16.8335 19.4721 17.2731 19.0741 17.679C19.0008 17.7522 18.9278 17.8255 18.8503 17.8985H15.8648L13.831 14.2377L15.8648 10.5769H19.9324L21.5432 13.4771Z" fill="white"/>
<path id="Vector_4" d="M18.8504 17.8985C18.7041 18.041 18.5536 18.1792 18.3991 18.3094C18.3908 18.3176 18.3868 18.3257 18.3786 18.3297C18.2403 18.4478 18.1021 18.5617 17.9556 18.6673C17.9223 18.6957 17.887 18.7215 17.8498 18.7446C17.7035 18.8585 17.553 18.9643 17.3984 19.066C17.3763 19.0811 17.353 19.0947 17.3292 19.1066C17.2102 19.1907 17.0866 19.2681 16.959 19.3386C16.8574 19.4036 16.7516 19.4605 16.6459 19.5175C16.4994 19.5947 16.353 19.672 16.2065 19.7412C16.0846 19.8021 15.9666 19.8551 15.8405 19.912C15.6533 19.9933 15.4622 20.0665 15.2711 20.1358C15.1692 20.1764 15.0636 20.209 14.9578 20.2416C14.8114 20.2906 14.6635 20.3353 14.5145 20.3758C14.5057 20.381 14.496 20.3837 14.4859 20.3839L15.8648 17.8985H18.8504ZM9.10863 20.3839C9.09862 20.3837 9.08882 20.3809 9.08022 20.3758C8.93117 20.3353 8.7833 20.2906 8.63681 20.2416C8.53111 20.209 8.42527 20.1765 8.3237 20.1358C8.13232 20.0665 7.94122 19.9933 7.75406 19.912C7.62811 19.8551 7.50999 19.8022 7.38803 19.7412C7.24156 19.672 7.09508 19.5947 6.94884 19.5175C6.843 19.4605 6.73716 19.4036 6.63554 19.3386C6.50801 19.268 6.38441 19.1905 6.26529 19.1065C6.24153 19.0947 6.21842 19.0811 6.1963 19.066C6.04176 18.9643 5.89125 18.8585 5.74478 18.7446C5.70761 18.7215 5.67223 18.6957 5.63894 18.6673C5.49246 18.5617 5.35423 18.4478 5.21601 18.3297C5.20776 18.3257 5.20373 18.3176 5.19566 18.3094C5.04113 18.1792 4.89062 18.041 4.74414 17.8985H7.72973L9.10863 20.3839Z" fill="#35495E"/>
<path id="Vector_5" d="M9.7635 14.2377L7.7297 17.8985H4.74411C4.66686 17.8255 4.59365 17.7523 4.52039 17.679C4.12242 17.2732 3.76042 16.8336 3.43848 16.3651C3.30006 16.1739 3.17411 15.9746 3.056 15.7754C2.99905 15.6778 2.9421 15.5802 2.88918 15.4824C2.80387 15.3279 2.72255 15.1733 2.64933 15.0148C2.60081 14.9169 2.55466 14.8179 2.51092 14.7178C2.46625 14.616 2.42153 14.5184 2.38089 14.4168C2.2954 14.2133 2.21815 14.0059 2.15295 13.7944C2.11653 13.6886 2.08391 13.583 2.05133 13.4771L3.66201 10.5769H7.7297L9.7635 14.2377Z" fill="white"/>
<path id="Vector_6" d="M3.66199 10.5769L2.05131 13.4771C1.48737 11.5848 1.48737 9.56913 2.05131 7.67682L3.66199 10.5769Z" fill="#35495E"/>
<path id="Vector_7" d="M9.7635 6.91604L7.7297 10.5769H3.66201L2.05133 7.67688C2.54915 5.9939 3.47731 4.46987 4.74416 3.25525H7.7297L9.7635 6.91604Z" fill="white"/>
<path id="Vector_8" d="M15.8648 10.5769L13.831 14.2377H9.76347L7.72968 10.5769L9.76347 6.91608H13.831L15.8648 10.5769Z" fill="#35495E"/>
<path id="Vector_9" d="M15.8648 17.8985L14.4859 20.3839C14.4843 20.3854 14.4823 20.3866 14.4802 20.3873C14.4781 20.388 14.4758 20.3882 14.4736 20.3879C14.3743 20.4162 14.274 20.4406 14.1728 20.4611C14.1693 20.4651 14.1648 20.468 14.1597 20.4695C14.1547 20.4709 14.1493 20.4709 14.1442 20.4694C14.0426 20.4978 13.9408 20.5181 13.8352 20.5384C13.7967 20.5505 13.7572 20.5587 13.717 20.5629C13.6074 20.5873 13.4935 20.6036 13.3837 20.6199C13.0712 20.6716 12.7562 20.7068 12.44 20.7255C12.383 20.7296 12.3219 20.7338 12.2609 20.7338C11.952 20.7499 11.6424 20.7499 11.3335 20.7338C11.2726 20.7338 11.2116 20.7296 11.1547 20.7255C10.8385 20.7068 10.5235 20.6716 10.211 20.6199C10.1011 20.6036 9.98724 20.5873 9.87737 20.5629C9.83725 20.5587 9.79769 20.5505 9.75944 20.5384C9.65361 20.5181 9.55199 20.4978 9.45023 20.4694C9.4452 20.4709 9.43983 20.471 9.43478 20.4695C9.42974 20.468 9.42523 20.4651 9.42182 20.4611C9.32057 20.4406 9.22015 20.4162 9.12081 20.3879C9.11859 20.3882 9.11635 20.388 9.11424 20.3873C9.11212 20.3866 9.11018 20.3854 9.10857 20.3839L7.72968 17.8985L9.76347 14.2377H13.831L15.8648 17.8985ZM21.5431 7.67683L19.9324 10.5769H15.8648L13.8309 6.91609L15.8648 3.25525H18.8503C20.1172 4.46986 21.0453 5.99387 21.5431 7.67683Z" fill="white"/>
<path id="Vector_10" d="M18.8504 3.25529H15.8648L14.4859 0.770111C16.1276 1.21593 17.6292 2.07101 18.8504 3.25529ZM9.10863 0.770111L7.72973 3.25529H4.74414C5.96532 2.07103 7.467 1.21597 9.10863 0.770111Z" fill="#35495E"/>
<path id="Vector_11" d="M15.8648 3.25529L13.831 6.91604H9.76347L7.72968 3.25529L9.10852 0.77011C10.8685 0.287283 12.7259 0.287283 14.4859 0.77011L15.8648 3.25529Z" fill="white"/>
<path id="Vector_12" d="M21.9663 10.5769C21.9678 11.5591 21.8253 12.5363 21.5432 13.4771L19.9324 10.5769L21.5432 7.67688C21.8252 8.61766 21.9678 9.59473 21.9663 10.5769Z" fill="#35495E"/>
<path id="Vector_13" d="M22.3649 10.1783V10.1344C22.3609 10.0404 22.3563 9.94649 22.349 9.86155C22.3403 9.71212 22.3279 9.56218 22.3083 9.39044C22.292 9.24724 22.275 9.10133 22.2527 8.96985C22.2307 8.81644 22.2041 8.65876 22.1712 8.51833C22.1104 8.19668 22.0318 7.87865 21.9357 7.56569L21.9337 7.55838C21.8995 7.44813 21.8658 7.33831 21.8321 7.24072C21.7633 7.01885 21.6834 6.80056 21.5928 6.58666C21.5582 6.50117 21.5215 6.41825 21.4846 6.33402L21.4573 6.27304C21.4099 6.16523 21.3626 6.06193 21.3158 5.96931C21.2385 5.80197 21.1532 5.639 21.064 5.47785C21.0074 5.3742 20.949 5.27153 20.8888 5.16989C20.7736 4.97912 20.6548 4.78793 20.5296 4.6085C20.4453 4.48659 20.3607 4.36739 20.2732 4.25147C19.998 3.87889 19.6965 3.52641 19.3712 3.1967C19.2898 3.11102 19.2084 3.02956 19.136 2.96529C18.9889 2.82172 18.837 2.68054 18.6818 2.55038C18.6696 2.53856 18.657 2.52721 18.6439 2.51635C18.4955 2.38923 18.3429 2.26709 18.1863 2.15013C18.1528 2.12291 18.1177 2.09755 18.0814 2.07415C17.9338 1.96083 17.782 1.85311 17.6263 1.7512C17.599 1.73235 17.5707 1.7151 17.5414 1.69955C17.425 1.61775 17.3042 1.54237 17.1795 1.47376C17.0733 1.40547 16.9623 1.34524 16.8257 1.27034C16.6776 1.19239 16.5299 1.11453 16.3896 1.04825C16.2734 0.990038 16.1602 0.938947 16.004 0.868122C15.8088 0.783517 15.6095 0.707349 15.4236 0.640322C15.3114 0.59509 15.1949 0.559045 15.088 0.526421C14.9431 0.477845 14.7968 0.433221 14.6495 0.3926C14.6261 0.3838 14.602 0.376888 14.5775 0.37193C14.4734 0.342962 14.3741 0.317698 14.2696 0.297027L14.2542 0.293746C14.1551 0.265885 14.0546 0.2432 13.9532 0.225781C13.8983 0.208949 13.842 0.19672 13.7851 0.189221C13.6754 0.166119 13.5649 0.147417 13.4537 0.133161C13.1273 0.0789482 12.7983 0.0419615 12.468 0.0223544C12.4021 0.0179483 12.3309 0.0139173 12.2948 0.0146673C12.1861 0.00566774 12.0821 0.00566774 12.0006 0.00604272C11.8748 -0.00201424 11.7486 -0.00201424 11.6229 0.00604272C11.5137 0.00604272 11.4088 0.00604272 11.3339 0.0142923C11.2636 0.0142923 11.1924 0.0186514 11.1307 0.0232449C10.7952 0.0428497 10.461 0.0801968 10.1295 0.13513C10.025 0.150504 9.9173 0.166815 9.81221 0.189127C9.76811 0.19372 9.72456 0.20272 9.68223 0.216032C9.56543 0.23839 9.45279 0.261639 9.34039 0.292949L9.32629 0.296606C9.22783 0.316699 9.13012 0.340275 9.03333 0.367289C9.01069 0.37178 8.9885 0.378338 8.96705 0.386882C8.81125 0.42752 8.65962 0.475143 8.51956 0.522719C8.40257 0.558435 8.28614 0.594715 8.18686 0.634978C7.98803 0.706928 7.78863 0.783095 7.55647 0.88434C7.43728 0.938384 7.32412 0.989616 7.21557 1.04418C7.06745 1.11416 6.91985 1.19178 6.74539 1.28369C6.63515 1.34355 6.52401 1.4058 6.44105 1.45783C6.30865 1.53121 6.18008 1.61131 6.05585 1.69781C6.02801 1.71286 6.00073 1.72936 5.97452 1.74708C5.81752 1.84969 5.66446 1.95823 5.51569 2.07247C5.47632 2.09824 5.43826 2.12609 5.40179 2.15576C5.24692 2.2682 5.09951 2.38885 4.95434 2.51372C4.94169 2.52469 4.92922 2.53571 4.91769 2.54724C4.74051 2.69681 4.59436 2.83194 4.46678 2.95845C4.38526 3.03443 4.31055 3.11041 4.2333 3.18789C3.90646 3.51853 3.60347 3.87193 3.3266 4.24543C3.23862 4.36239 3.15329 4.48132 3.07068 4.60213C2.94337 4.78427 2.8246 4.97542 2.7046 5.17154C2.64633 5.27105 2.58926 5.37127 2.53342 5.47218C2.44296 5.63478 2.35765 5.79756 2.28514 5.95496C2.23353 6.05827 2.18647 6.16153 2.1389 6.26938L2.11157 6.33032C2.07459 6.4146 2.03798 6.49751 2.00573 6.57734C1.91785 6.7829 1.8409 6.99296 1.77521 7.20665C1.73117 7.32006 1.69364 7.4359 1.66281 7.5536L1.66047 7.56203C1.5658 7.87077 1.4881 8.18446 1.4277 8.50169C1.39236 8.6551 1.36602 8.81278 1.34642 8.95523C1.32683 9.09767 1.30579 9.24359 1.28619 9.40839C1.2688 9.55852 1.2562 9.70847 1.24757 9.8489C1.24021 9.94283 1.23585 10.0368 1.23182 10.1307V10.1746C1.2276 10.3085 1.22357 10.4386 1.22357 10.5732C1.22357 10.708 1.2276 10.8382 1.23182 10.972V11.0171C1.23618 11.1106 1.24026 11.2042 1.24757 11.2888C1.25615 11.438 1.2688 11.5882 1.28821 11.7598C1.30447 11.903 1.32172 12.049 1.34403 12.1804C1.36602 12.3337 1.39236 12.4915 1.42536 12.632C1.48596 12.9544 1.56431 13.2732 1.66005 13.587V13.5943C1.69427 13.7045 1.72801 13.8144 1.76167 13.912C1.83049 14.1339 1.91036 14.3521 2.001 14.566C2.0354 14.6515 2.07201 14.7345 2.10918 14.8187L2.13632 14.8796C2.1839 14.9875 2.23114 15.0907 2.27783 15.1836C2.35526 15.3507 2.44062 15.5137 2.52977 15.6748C2.58577 15.7776 2.64364 15.8792 2.70334 15.9799C2.84288 16.2155 2.97431 16.4187 3.10082 16.5929C3.43464 17.0788 3.80999 17.5349 4.22266 17.956C4.30399 18.0417 4.38526 18.1232 4.45778 18.1875C4.60533 18.331 4.75678 18.4722 4.91258 18.6023C4.9243 18.6142 4.93695 18.6258 4.94994 18.6364C5.09835 18.7635 5.25096 18.8856 5.40751 19.0026C5.44097 19.0297 5.47594 19.0551 5.51203 19.0786C5.65978 19.1919 5.81174 19.2996 5.96759 19.4015C5.99524 19.4204 6.0236 19.4378 6.05308 19.4535C6.16922 19.5353 6.28983 19.6106 6.41433 19.679C6.52035 19.7473 6.63149 19.8075 6.76808 19.8824C6.91619 19.9609 7.06431 20.0386 7.20385 20.1045C7.32047 20.1631 7.43399 20.2143 7.5898 20.285C7.78498 20.3696 7.98437 20.4458 8.17022 20.5128C8.28248 20.558 8.39891 20.5942 8.50583 20.6267C8.65074 20.6753 8.79698 20.72 8.94437 20.7605C8.96775 20.7694 8.99181 20.7764 9.01632 20.7814C9.12047 20.8101 9.21974 20.8354 9.32427 20.8561L9.33833 20.8597C9.43798 20.8874 9.53904 20.9099 9.64103 20.9269C9.69597 20.9438 9.75217 20.956 9.80912 20.9635C9.91402 20.9859 10.023 21.0042 10.1405 21.0196C10.4663 21.0737 10.7948 21.1107 11.1245 21.1304C11.19 21.1347 11.2563 21.1367 11.3099 21.1384C11.4727 21.1474 11.6353 21.1514 11.7953 21.1514C11.9552 21.1514 12.1207 21.1474 12.2589 21.1393C12.3292 21.1393 12.4005 21.1347 12.4623 21.1304C12.7974 21.1102 13.131 21.0727 13.462 21.0175C13.5666 21.0022 13.6745 20.9859 13.7794 20.9635C13.8231 20.959 13.8663 20.95 13.9084 20.9366C14.0251 20.9143 14.1377 20.891 14.2501 20.8598L14.2642 20.8561C14.3626 20.8361 14.4604 20.8125 14.5571 20.7854C14.5798 20.781 14.602 20.7744 14.6234 20.7658C14.7792 20.7252 14.931 20.6776 15.0709 20.63C15.1881 20.5942 15.3044 20.558 15.4036 20.5177C15.6024 20.4457 15.8018 20.3696 16.0333 20.2687C16.1528 20.2143 16.2664 20.1631 16.3746 20.1085C16.5225 20.0386 16.6706 19.9609 16.8452 19.869C16.9553 19.8091 17.0665 19.7469 17.1494 19.6949C17.2816 19.6217 17.4099 19.5417 17.5338 19.4552C17.5618 19.4401 17.589 19.4235 17.6152 19.4056C17.7723 19.3029 17.9255 19.1943 18.0744 19.0802C18.1137 19.0552 18.1516 19.028 18.188 18.9989C18.3428 18.8867 18.4901 18.7658 18.6353 18.641C18.6479 18.63 18.6605 18.619 18.6718 18.6077C18.8241 18.4785 18.9717 18.3439 19.1144 18.2041C19.1197 18.1995 19.1243 18.1944 19.1291 18.1895L19.1323 18.1865C19.2102 18.1158 19.2854 18.0422 19.3578 17.9658C19.7699 17.5455 20.145 17.0904 20.4787 16.6055C20.6108 16.4233 20.7423 16.2199 20.8831 15.9819C20.9414 15.8825 20.9985 15.7823 21.0543 15.6814C21.1446 15.5186 21.2301 15.3559 21.3024 15.1986C21.3541 15.0952 21.4013 14.9919 21.4489 14.884L21.4762 14.8231C21.5131 14.7388 21.5497 14.6559 21.5818 14.5763C21.6719 14.3647 21.751 14.1487 21.8189 13.929C21.8572 13.8188 21.8911 13.7089 21.9247 13.6L21.9271 13.5914C22.0219 13.2828 22.0996 12.9691 22.1598 12.6519C22.1952 12.4985 22.2217 12.3407 22.2411 12.1984C22.2607 12.0559 22.2819 11.9098 22.3014 11.7452C22.3189 11.5951 22.3316 11.445 22.3396 11.3047C22.3473 11.2112 22.3514 11.1176 22.356 11.024V10.9788C22.3599 10.8449 22.364 10.7148 22.364 10.5802C22.364 10.4456 22.3689 10.3121 22.3649 10.1783ZM20.3977 10.5769L21.3923 8.78728C21.4123 8.88806 21.4329 8.99057 21.4476 9.09636C21.4688 9.22399 21.4835 9.35547 21.5009 9.50556C21.5164 9.64018 21.5281 9.77531 21.5362 9.91921C21.5435 10.0031 21.5472 10.0867 21.5518 10.2039C21.5558 10.3301 21.5595 10.452 21.5595 10.5786C21.5595 10.7051 21.5558 10.8272 21.5509 10.9854C21.5474 11.0723 21.5424 11.1591 21.5359 11.2457C21.5276 11.3882 21.5151 11.5303 21.4985 11.672C21.4835 11.8002 21.4688 11.9314 21.4456 12.0702C21.4317 12.1654 21.4119 12.2667 21.3919 12.3679L20.3977 10.5769ZM19.6192 4.736C19.7013 4.84599 19.7814 4.95757 19.8592 5.07067C19.9764 5.23824 20.085 5.4133 20.1872 5.5828C20.2419 5.67767 20.2968 5.77197 20.3498 5.86755C20.431 6.01365 20.5073 6.15956 20.5821 6.32033C20.628 6.41221 20.67 6.50417 20.7117 6.59969L20.7394 6.66199C20.7729 6.73759 20.8062 6.81156 20.8395 6.89377C20.9217 7.0894 20.9944 7.28884 21.0576 7.4914C21.0733 7.53808 21.0876 7.58571 21.1026 7.63258L19.6928 10.1703H16.1045L15.0876 8.33988L14.2964 6.91613L15.0872 5.49257L16.1041 3.66215H18.6842C18.7171 3.69472 18.7497 3.72402 18.7846 3.76105C19.0856 4.06586 19.3645 4.39166 19.6192 4.736H19.6192ZM13.5915 13.8311H10.0031L8.98613 12.0007L8.19516 10.5769L8.98576 9.1534L10.0027 7.32294H13.5912L14.6081 9.15336L15.3996 10.5769L14.6089 12.0007L13.5915 13.8311ZM15.7023 1.62835C15.8116 1.67794 15.9158 1.72425 16.0304 1.78209C16.1685 1.8471 16.3054 1.91961 16.4629 2.00258C16.5552 2.05254 16.6487 2.10218 16.7615 2.17338C16.876 2.23681 16.9869 2.30649 17.0938 2.3821C17.1099 2.39345 17.1551 2.42077 17.1731 2.42973C17.3188 2.52493 17.4608 2.62583 17.5986 2.7322C17.6153 2.74485 17.657 2.77672 17.6753 2.78676C17.6806 2.79079 17.7099 2.81404 17.7161 2.81769C17.7299 2.82777 17.7425 2.84005 17.7568 2.85031H16.1045L15.3454 1.4807C15.4606 1.52467 15.5778 1.57135 15.7023 1.62835ZM9.56009 1.07619C9.6513 1.05055 9.74195 1.03316 9.8754 1.00513C9.88857 1.00091 9.9023 0.997819 9.91604 0.995803C9.93253 0.994162 9.94899 0.991584 9.96525 0.987928C10.0579 0.967258 10.1541 0.953524 10.2784 0.935197C10.5775 0.885575 10.8791 0.851718 11.1818 0.833765C11.2299 0.830671 11.281 0.827015 11.3665 0.825328C11.452 0.82364 11.5353 0.818765 11.6513 0.817641C11.6992 0.814734 11.7514 0.814734 11.7974 0.814734C11.8433 0.814734 11.8956 0.814734 11.9722 0.818765C12.0568 0.818765 12.141 0.818765 12.2609 0.827015C12.3126 0.827015 12.3639 0.830671 12.414 0.834327C12.7267 0.853055 13.0381 0.888322 13.3471 0.939978C13.4397 0.953524 13.5359 0.967258 13.6285 0.987928C13.6448 0.991584 13.6613 0.994162 13.6777 0.995803C13.7052 1.0004 13.7323 1.00677 13.759 1.01483C13.8539 1.03316 13.9445 1.05055 14.0357 1.07619L14.0487 1.07947C14.0639 1.08463 14.0793 1.08866 14.095 1.09175C14.1356 1.09981 14.1765 1.11172 14.2172 1.12142L15.3996 3.2552L15.0709 3.8472L13.5915 6.50937H10.003L8.52373 3.84659L8.19516 3.2552L9.37869 1.1218C9.41928 1.11209 9.46011 1.10019 9.50079 1.09213C9.5165 1.08913 9.53197 1.08503 9.5471 1.07985L9.56009 1.07619ZM5.93993 2.76468C5.95821 2.75465 5.97584 2.74326 5.99248 2.73046C6.13075 2.62312 6.27226 2.52357 6.44601 2.41079C6.46384 2.40194 6.48098 2.39177 6.49729 2.38037C6.61176 2.29975 6.73057 2.22549 6.8532 2.15791C6.94221 2.1004 7.03577 2.05081 7.14765 1.9902C7.2855 1.91788 7.42265 1.84537 7.56819 1.77632C7.67511 1.72251 7.7793 1.6762 7.91444 1.61358C8.02046 1.56765 8.13399 1.52659 8.24512 1.48375L7.49019 2.84853H5.83503C5.85331 2.83466 5.86962 2.82125 5.88865 2.80789L5.93993 2.76468ZM2.54186 7.47907C2.60045 7.28961 2.67039 7.09847 2.75794 6.8888C2.78888 6.8124 2.82216 6.73848 2.85549 6.66269L2.88314 6.6004C2.92378 6.50482 2.96704 6.41291 3.01827 6.31002C3.08783 6.16045 3.16419 6.0143 3.2464 5.86619C3.29768 5.77193 3.35262 5.67762 3.40422 5.58809C3.5095 5.41326 3.61829 5.23819 3.7373 5.06828C3.81478 4.95503 3.89456 4.84337 3.97658 4.73337C4.23077 4.39053 4.50872 4.06597 4.80838 3.76208C4.84044 3.73002 4.87705 3.69505 4.91038 3.6621H7.49024L8.50691 5.49247L9.29811 6.91608L8.50747 8.33984L7.49057 10.1702H3.90173L2.48946 7.62831C2.5045 7.582 2.52082 7.53363 2.54186 7.47907ZM2.20222 12.3667C2.18226 12.2658 2.16158 12.1632 2.14691 12.0576C2.12582 11.9298 2.1112 11.7985 2.09362 11.6484C2.07781 11.5109 2.06602 11.3729 2.05828 11.2347C2.05134 11.1533 2.04731 11.0676 2.04272 10.95C2.03869 10.8255 2.03503 10.7034 2.03503 10.5769C2.03503 10.4504 2.03868 10.3285 2.04365 10.1703C2.04731 10.086 2.05097 10.0022 2.05865 9.90918C2.06634 9.77437 2.07825 9.63943 2.09601 9.48273C2.1112 9.35477 2.12587 9.22324 2.14893 9.08445C2.16285 8.98944 2.18282 8.88806 2.2026 8.78677L3.19676 10.5769L2.20222 12.3667ZM3.76823 16.126C3.65105 15.9632 3.53275 15.7814 3.40755 15.5695C3.35202 15.4754 3.29775 15.3805 3.24476 15.2848C3.16348 15.1387 3.08727 14.9928 3.0126 14.8321C2.96667 14.7401 2.92472 14.6482 2.88277 14.5526L2.85511 14.4904C2.82183 14.4148 2.7885 14.3406 2.75499 14.2586C2.67282 14.063 2.6001 13.8635 2.53708 13.6609C2.52114 13.6143 2.50689 13.5666 2.49185 13.5198L3.90173 10.9837H7.49019L8.50695 12.8141L9.29807 14.2377L8.50747 15.6615L7.49057 17.4918H4.91C4.87743 17.4593 4.84504 17.43 4.81077 17.3943C4.42729 17.0027 4.07848 16.5786 3.76823 16.1267V16.126ZM7.89245 19.5277C7.78334 19.4781 7.67932 19.4312 7.56327 19.3732C7.42537 19.3084 7.28841 19.2361 7.13134 19.1531C7.03905 19.1029 6.94549 19.0533 6.8329 18.9823C6.71852 18.9188 6.6077 18.8491 6.50095 18.7735C6.4837 18.7618 6.43978 18.7353 6.41944 18.7259C6.2739 18.6303 6.13234 18.5308 5.99412 18.4233C5.97818 18.4112 5.93389 18.3782 5.91631 18.368C5.91101 18.3643 5.88261 18.3416 5.87567 18.338C5.86194 18.3277 5.84928 18.3156 5.83503 18.3054H7.48855L8.24747 19.6737C8.13652 19.6293 8.01681 19.5826 7.89245 19.5277ZM14.0344 20.0775C13.9434 20.1032 13.8526 20.1208 13.7193 20.1488C13.706 20.153 13.6924 20.1561 13.6785 20.1581C13.662 20.1598 13.6455 20.1624 13.6294 20.1658C13.5366 20.1867 13.4406 20.2004 13.3161 20.2187C13.017 20.2683 12.7154 20.302 12.4127 20.3199C12.3647 20.3232 12.3135 20.327 12.2399 20.3273C11.9383 20.3438 11.6361 20.3438 11.3345 20.3273C11.2827 20.3273 11.2314 20.3236 11.1814 20.32C10.8687 20.3013 10.5573 20.266 10.2484 20.2143C10.1556 20.2007 10.0596 20.1871 9.96694 20.1663C9.95071 20.1627 9.93427 20.1601 9.91772 20.1585C9.89016 20.1539 9.86292 20.1475 9.83616 20.1394C9.74153 20.1212 9.65074 20.1037 9.55971 20.0781L9.54673 20.0748C9.53151 20.0697 9.51598 20.0656 9.50023 20.0625C9.45959 20.0545 9.41895 20.0426 9.37827 20.0329L8.19511 17.8985L8.52378 17.3067L10.003 14.6446H13.5915L15.0709 17.3071L15.3996 17.8985L14.2158 20.0321C14.1752 20.0418 14.1346 20.0536 14.0939 20.0618C14.0782 20.0647 14.0626 20.0688 14.0474 20.0739L14.0344 20.0775ZM17.6518 18.39C17.6339 18.3998 17.6171 18.4108 17.6009 18.4232C17.4627 18.5308 17.321 18.6304 17.1498 18.7415C17.1311 18.7509 17.113 18.7617 17.0958 18.7735C16.9814 18.8541 16.8627 18.9284 16.7402 18.996C16.6512 19.0533 16.5576 19.1029 16.4458 19.1632C16.3083 19.2361 16.1711 19.3084 16.0247 19.3776C15.9174 19.4312 15.8132 19.4781 15.679 19.5404C15.5728 19.5863 15.4593 19.6273 15.3483 19.67L16.1045 18.3054H17.7595C17.7412 18.3193 17.7249 18.3326 17.7058 18.346L17.6518 18.39ZM21.053 13.6749C20.9945 13.8644 20.9245 14.0555 20.8371 14.265C20.8062 14.3415 20.7729 14.4155 20.7394 14.4911L20.7117 14.5534C20.6711 14.649 20.628 14.7408 20.5768 14.844C20.5072 14.9935 20.4307 15.1396 20.3485 15.2876C20.2974 15.3821 20.2425 15.4764 20.1891 15.5683C20.0623 15.7823 19.9451 15.9648 19.823 16.135C19.5126 16.5858 19.1638 17.0089 18.7804 17.3996C18.7511 17.4303 18.7211 17.4609 18.6902 17.4919H16.1045L15.0876 15.6615L14.2964 14.2377L15.0872 12.8141L16.1041 10.9837H19.6924L21.1016 13.5203C21.086 13.5714 21.0713 13.619 21.0527 13.6749H21.053Z" fill="#2C3E50"/>
</g>
</g>
<defs>
<clipPath id="clip0_2_811">
<rect width="24" height="24" fill="white"/>
</clipPath>
</defs>
</svg>
