<svg width="24" height="24" viewBox="0 0 24 24" fill="none" xmlns="http://www.w3.org/2000/svg">
<g id="Frame">
<g id="Group">
<path id="Vector" d="M19.1755 0V1.46939H20.833L17.5994 4.53544C16.4547 3.36403 14.8585 2.63559 13.0951 2.63559C10.7231 2.63559 8.6533 3.95334 7.57855 5.89505C7.48604 5.89086 7.39346 5.88871 7.30086 5.88858C3.82658 5.88858 1.00006 8.71509 1.00006 12.1894C1.00006 15.4152 3.43681 18.0821 6.56614 18.4471V20.3998H4.36644V21.8692H6.56623V24H8.03562V21.8692H10.3314V20.3998H8.03562V18.4471C10.0957 18.2068 11.8554 16.969 12.8175 15.2307C12.9095 15.2347 13.002 15.2372 13.0951 15.2372C16.5694 15.2372 19.3959 12.4107 19.3959 8.93639C19.3959 7.75575 19.0692 6.65011 18.502 5.70464L22.0138 2.37473V4.19972H23.4832V0H19.1755ZM7.30095 17.0208C4.63691 17.0208 2.46955 14.8534 2.46955 12.1893C2.46955 9.62906 4.47134 7.52798 6.9919 7.36809C6.86037 7.88047 6.79398 8.4074 6.79433 8.93639C6.79433 11.7706 8.67551 14.1735 11.2548 14.9627C10.3798 16.2065 8.9338 17.0208 7.30095 17.0208ZM11.9156 13.6219C9.81987 13.0941 8.26376 11.1937 8.26376 8.93639C8.26376 8.43783 8.3397 7.95666 8.48056 7.50384C10.5763 8.03166 12.1324 9.93211 12.1324 12.1894C12.1324 12.6879 12.0564 13.1691 11.9156 13.6219ZM13.4042 13.7576C13.5358 13.2452 13.6021 12.7183 13.6018 12.1893C13.6018 9.35508 11.7206 6.95217 9.14136 6.16294C10.0163 4.91925 11.4624 4.10489 13.0952 4.10489C15.7593 4.10489 17.9267 6.27225 17.9267 8.93634C17.9266 11.4966 15.9248 13.5977 13.4042 13.7576Z" fill="#400179"/>
</g>
</g>
</svg>
