<svg width="24" height="24" viewBox="0 0 24 24" fill="none" xmlns="http://www.w3.org/2000/svg">
<g id="Frame" clip-path="url(#clip0_2_781)">
<g id="Group">
<path id="Vector" d="M18.7151 7.74886C18.5805 7.74886 18.4437 7.72678 18.3094 7.68023C17.663 7.45622 17.3206 6.75056 17.5446 6.10411L18.4276 3.55655C18.5515 3.19903 18.3949 2.92163 18.3218 2.81897C18.2487 2.71627 18.0379 2.47744 17.6595 2.47744H13.1616C12.7833 2.47744 12.5724 2.71627 12.4993 2.81897C12.4262 2.92167 12.2696 3.19908 12.3935 3.55655L13.2765 6.10411C13.5005 6.75052 13.1582 7.45617 12.5117 7.68023C11.8653 7.9042 11.1597 7.56187 10.9356 6.91547L10.0526 4.36791C9.70468 3.36403 9.86481 2.24794 10.4809 1.38234C11.0971 0.51675 12.0992 0 13.1616 0H17.6595C18.722 0 19.7241 0.51675 20.3402 1.38234C20.9563 2.24794 21.1164 3.36403 20.7684 4.36791L19.8855 6.91547C19.708 7.42758 19.2282 7.74886 18.7151 7.74886Z" fill="url(#paint0_linear_2_781)"/>
<path id="Vector_2" d="M17.6596 0H15.2283V2.47748H17.6596C18.0379 2.47748 18.2488 2.71631 18.3218 2.81902C18.3949 2.92167 18.5515 3.19908 18.4276 3.55659L17.5447 6.10416C17.3206 6.75056 17.663 7.45622 18.3094 7.68028C18.4399 7.72565 18.577 7.74884 18.7151 7.74891C19.2282 7.74891 19.708 7.42763 19.8855 6.91552L20.7685 4.36795C21.1164 3.36408 20.9563 2.24798 20.3402 1.38239C19.7242 0.51675 18.722 0 17.6596 0Z" fill="url(#paint1_linear_2_781)"/>
<path id="Vector_3" d="M19.1973 2.34633C18.7241 1.61179 17.9543 1.17328 17.1381 1.17328H13.6831C12.8669 1.17328 12.0972 1.61179 11.6239 2.34633C11.1507 3.08086 11.0277 4.02797 11.2949 4.87983L11.9732 7.04165C12.068 7.34372 12.2752 7.56689 12.525 7.67526C13.1628 7.44619 13.4991 6.74606 13.2766 6.10411L12.3936 3.55654C12.2697 3.19908 12.4263 2.92167 12.4994 2.81897C12.5725 2.71626 12.7833 2.47744 13.1617 2.47744H17.6596C18.0379 2.47744 18.2488 2.71626 18.3219 2.81897C18.395 2.92162 18.5516 3.19903 18.4277 3.55654L17.5447 6.10411C17.3221 6.74625 17.6587 7.44665 18.2968 7.6755C18.5464 7.56703 18.7533 7.34353 18.8481 7.04165L19.5263 4.87983C19.7936 4.02797 19.6706 3.08086 19.1973 2.34633Z" fill="url(#paint2_linear_2_781)"/>
<path id="Vector_4" d="M10.0527 4.3679L10.9357 6.91546C11.1598 7.56187 11.8654 7.9042 12.5118 7.68023C13.1582 7.45617 13.5007 6.75056 13.2766 6.1041L12.3936 3.55654C12.2697 3.19907 12.4263 2.92167 12.4994 2.81896C12.5725 2.71626 12.7833 2.47743 13.1617 2.47743H17.6596C18.0379 2.47743 18.2488 2.71626 18.3219 2.81896C18.395 2.92162 18.5516 3.19903 18.4277 3.55654L17.5447 6.1041C17.3207 6.75051 17.6631 7.45617 18.3095 7.68023C18.4399 7.7256 18.577 7.74879 18.7152 7.74885C19.2283 7.74885 19.708 7.42757 19.8855 6.91546L20.7685 4.3679C20.9971 3.70828 21.0064 3.00018 20.8111 2.34656H10.0102C9.81487 3.00018 9.8241 3.70828 10.0527 4.3679Z" fill="url(#paint3_linear_2_781)"/>
<path id="Vector_5" d="M13.8739 18.3647H16.946C19.3405 18.3647 21.5008 16.8908 22.3377 14.6473C22.6447 13.8243 22.8092 12.9318 22.8012 11.9999C22.7669 8.00353 19.5121 4.73039 15.5159 4.67475C11.3858 4.61723 8.01971 7.94798 8.01971 12.0649C8.01971 13.0096 8.197 13.9129 8.52006 14.7433C9.37464 16.9398 11.517 18.3647 13.8739 18.3647Z" fill="url(#paint4_linear_2_781)"/>
<path id="Vector_6" d="M14.4451 11.4114L15.2904 12.596C15.3232 12.6495 15.3397 12.6988 15.3397 12.7441C15.3397 12.8017 15.3221 12.8582 15.2872 12.9137C15.2522 12.9692 15.207 13.0196 15.1515 13.0649C15.096 13.1102 15.0363 13.1472 14.9726 13.176C14.9088 13.2046 14.8481 13.2191 14.7906 13.2191C14.6919 13.2191 14.6158 13.18 14.5624 13.1019L13.8159 11.9975L13.5012 12.2875V12.8613C13.5012 12.9353 13.4539 13.0032 13.3593 13.065C13.2647 13.1266 13.1496 13.1575 13.0139 13.1575C12.8782 13.1575 12.766 13.1266 12.6776 13.065C12.5891 13.0032 12.545 12.9353 12.545 12.8613V8.83257C12.545 8.74627 12.5891 8.67629 12.6776 8.62276C12.766 8.56946 12.8781 8.5426 13.0139 8.5426C13.1496 8.5426 13.2647 8.56946 13.3593 8.62276C13.4539 8.67624 13.5012 8.74627 13.5012 8.83257V11.251L14.5254 10.2577C14.5747 10.2084 14.6365 10.1837 14.7105 10.1837C14.7639 10.1837 14.8174 10.1982 14.8709 10.227C14.9248 10.2562 14.9746 10.2924 15.0189 10.3349C15.0639 10.3777 15.1014 10.4278 15.13 10.4829C15.1587 10.5384 15.1732 10.5909 15.1732 10.6403C15.1732 10.7019 15.1485 10.7575 15.0992 10.8069L14.4451 11.4114Z" fill="url(#paint5_linear_2_781)"/>
<path id="Vector_7" d="M16.8449 12.3245C16.7092 12.3245 16.5858 12.3122 16.4747 12.2874C16.4582 12.3163 16.4501 12.3429 16.4501 12.3677C16.4501 12.4253 16.4953 12.4653 16.5858 12.488C16.6762 12.5106 16.7894 12.5311 16.9251 12.5496C17.0608 12.5681 17.2068 12.5908 17.3631 12.6175C17.5193 12.6443 17.6655 12.6905 17.8012 12.7563C17.9369 12.8221 18.0499 12.9127 18.1404 13.0278C18.2309 13.1429 18.2762 13.2971 18.2762 13.4905C18.2762 13.6714 18.2361 13.8256 18.1559 13.9531C18.0757 14.0807 17.9698 14.1846 17.8382 14.2648C17.7065 14.345 17.5575 14.4035 17.3909 14.4406C17.2238 14.4777 17.0531 14.4963 16.8819 14.4961C16.6968 14.4961 16.5199 14.4766 16.3514 14.4375C16.1827 14.3984 16.0336 14.3408 15.904 14.2648C15.7744 14.1886 15.6705 14.0951 15.5925 13.9841C15.5143 13.8731 15.4752 13.7455 15.4752 13.6015C15.4752 13.4535 15.5143 13.3271 15.5925 13.2221C15.6705 13.1173 15.7693 13.0299 15.8886 12.9599C15.8186 12.9188 15.7642 12.8684 15.7251 12.8087C15.686 12.7492 15.6665 12.672 15.6665 12.5775C15.6665 12.4623 15.6953 12.3676 15.7529 12.2936C15.8104 12.2196 15.8865 12.1476 15.9811 12.0776C15.8535 11.983 15.7549 11.8689 15.685 11.7352C15.615 11.6015 15.5801 11.4545 15.5801 11.2941V11.2015C15.5801 11.0535 15.6098 10.9168 15.6696 10.7913C15.7291 10.6658 15.8145 10.5578 15.9256 10.4673C16.0367 10.3769 16.1702 10.3069 16.3267 10.2575C16.4829 10.2083 16.6556 10.1835 16.8449 10.1835C16.9765 10.1835 17.1019 10.1969 17.2212 10.2236C17.3405 10.2504 17.4474 10.2864 17.542 10.3315C17.616 10.1547 17.6798 10.0386 17.7333 9.98302C17.7867 9.92752 17.8402 9.89963 17.8937 9.89963C18.0088 9.89963 18.0983 9.93263 18.162 9.99839C18.2258 10.0642 18.2576 10.1259 18.2576 10.1835C18.2576 10.2493 18.2247 10.311 18.1589 10.3685C18.1219 10.4015 18.0797 10.4355 18.0324 10.4704C17.9833 10.507 17.9369 10.5472 17.8936 10.5907C18.0499 10.7593 18.1281 10.9629 18.1281 11.2014V11.294C18.1281 11.442 18.0961 11.5789 18.0324 11.7042C17.9686 11.8298 17.8802 11.9387 17.7672 12.0313C17.654 12.1238 17.5193 12.1958 17.3631 12.2471C17.2068 12.2988 17.034 12.3245 16.8449 12.3245ZM17.3509 13.5153C17.3509 13.4453 17.3313 13.3877 17.2922 13.3425C17.2531 13.2972 17.1997 13.2612 17.1318 13.2346C17.064 13.2077 16.9858 13.1872 16.8974 13.1729C16.8061 13.158 16.7146 13.1446 16.6229 13.1327C16.5406 13.178 16.4789 13.2324 16.4378 13.2962C16.3966 13.3599 16.3761 13.4288 16.3761 13.5029C16.3761 13.6304 16.4265 13.7271 16.5273 13.7929C16.628 13.8587 16.7401 13.8917 16.8635 13.8917C16.9869 13.8917 17.099 13.8587 17.1998 13.7929C17.3004 13.727 17.3509 13.6345 17.3509 13.5153ZM17.2028 11.2017C17.2028 11.0742 17.1729 10.9651 17.1133 10.8746C17.0536 10.7843 16.9662 10.7389 16.851 10.7389C16.74 10.7389 16.6546 10.7843 16.595 10.8746C16.5353 10.9651 16.5056 11.0743 16.5056 11.2017V11.288C16.5056 11.4237 16.5353 11.5379 16.595 11.6304C16.6545 11.723 16.742 11.7693 16.8572 11.7693C16.9642 11.7693 17.0485 11.7252 17.1102 11.6367C17.1719 11.5482 17.2027 11.4341 17.2027 11.2942V11.2017H17.2028Z" fill="url(#paint6_linear_2_781)"/>
<path id="Vector_8" d="M8.01971 12.0649C8.01971 13.0096 8.197 13.9128 8.52006 14.7433C9.37464 16.9398 11.517 18.3647 13.8739 18.3647H16.946C19.3406 18.3647 21.5008 16.8908 22.3377 14.6473C22.6447 13.8243 22.8092 12.9318 22.8012 12C22.7953 11.2711 22.6806 10.5471 22.4608 9.85214H8.3567C8.13775 10.5508 8.01971 11.294 8.01971 12.0649Z" fill="url(#paint7_linear_2_781)"/>
<path id="Vector_9" d="M15.5159 4.67475C15.0177 4.6676 14.52 4.71053 14.0304 4.8029V18.3647H16.946C19.3406 18.3647 21.5008 16.8908 22.3377 14.6473C22.6447 13.8243 22.8092 12.9318 22.8012 11.9999C22.7668 8.00353 19.5121 4.73039 15.5159 4.67475Z" fill="url(#paint8_linear_2_781)"/>
<path id="Vector_10" d="M22.2765 20.0418H1.72358C1.08477 20.0418 0.566895 19.5239 0.566895 18.8851C0.566895 18.2463 1.08477 17.7284 1.72358 17.7284H22.2765C22.9153 17.7284 23.4332 18.2463 23.4332 18.8851C23.4332 19.5239 22.9153 20.0418 22.2765 20.0418Z" fill="url(#paint9_linear_2_781)"/>
<path id="Vector_11" d="M0.566834 18.8851C0.566834 19.5239 1.08471 20.0418 1.72352 20.0418H22.2765C22.9153 20.0418 23.4332 19.5239 23.4332 18.8851C23.4332 18.7094 23.3938 18.543 23.3238 18.3939H0.676287C0.604038 18.5476 0.566661 18.7153 0.566834 18.8851Z" fill="url(#paint10_linear_2_781)"/>
<path id="Vector_12" d="M22.2765 17.7284H20.9125V20.0418H22.2765C22.9153 20.0418 23.4332 19.5239 23.4332 18.8851C23.4332 18.2463 22.9154 17.7284 22.2765 17.7284Z" fill="url(#paint11_linear_2_781)"/>
<path id="Vector_13" d="M6.9165 17.7284H12.364V20.0418H6.9165V17.7284Z" fill="url(#paint12_linear_2_781)"/>
<path id="Vector_14" d="M3.93738 22.6541H3.28595C2.51856 22.6541 1.89648 22.032 1.89648 21.2646V16.5056C1.89648 15.7382 2.51856 15.1161 3.28595 15.1161H3.93738C4.70477 15.1161 5.32684 15.7382 5.32684 16.5056V21.2646C5.32684 22.032 4.70477 22.6541 3.93738 22.6541Z" fill="url(#paint13_linear_2_781)"/>
<path id="Vector_15" d="M3.93738 22.6541H3.28595C2.51856 22.6541 1.89648 22.032 1.89648 21.2646V16.5056C1.89648 15.7382 2.51856 15.1161 3.28595 15.1161H3.93738C4.70477 15.1161 5.32684 15.7382 5.32684 16.5056V21.2646C5.32684 22.032 4.70477 22.6541 3.93738 22.6541Z" fill="url(#paint14_linear_2_781)"/>
<path id="Vector_16" d="M1.89648 18.3939V21.2646C1.89648 22.032 2.51856 22.6541 3.28595 22.6541H3.93738C4.70477 22.6541 5.32684 22.032 5.32684 21.2646V18.3939H1.89648Z" fill="url(#paint15_linear_2_781)"/>
<path id="Vector_17" d="M6.75025 24H6.03785C5.28733 24 4.67889 23.3916 4.67889 22.6411V15.1292C4.67889 14.3786 5.28733 13.7702 6.03785 13.7702H6.75025C7.50077 13.7702 8.10921 14.3786 8.10921 15.1292V22.6411C8.10921 23.3916 7.50077 24 6.75025 24Z" fill="url(#paint16_linear_2_781)"/>
<path id="Vector_18" d="M6.75028 13.7702H6.03788C5.92974 13.7702 5.82469 13.7832 5.72382 13.8071V23.9631C5.82672 23.9876 5.93211 24 6.03788 24H6.75028C7.5008 24 8.10924 23.3916 8.10924 22.6411V15.1292C8.10924 14.3786 7.5008 13.7702 6.75028 13.7702Z" fill="url(#paint17_linear_2_781)"/>
<path id="Vector_19" d="M4.67889 20.0738V22.641C4.67889 23.3916 5.28733 24 6.03785 24H6.75025C7.50077 24 8.10921 23.3916 8.10921 22.641V20.0738H4.67889Z" fill="url(#paint18_linear_2_781)"/>
<path id="Vector_20" d="M20.7141 22.6541H20.0627C19.2953 22.6541 18.6732 22.032 18.6732 21.2646V16.5056C18.6732 15.7382 19.2953 15.1161 20.0627 15.1161H20.7141C21.4815 15.1161 22.1036 15.7382 22.1036 16.5056V21.2646C22.1036 22.032 21.4815 22.6541 20.7141 22.6541Z" fill="url(#paint19_linear_2_781)"/>
<path id="Vector_21" d="M20.7141 22.6541H20.0627C19.2953 22.6541 18.6732 22.032 18.6732 21.2646V16.5056C18.6732 15.7382 19.2953 15.1161 20.0627 15.1161H20.7141C21.4815 15.1161 22.1036 15.7382 22.1036 16.5056V21.2646C22.1036 22.032 21.4815 22.6541 20.7141 22.6541Z" fill="url(#paint20_linear_2_781)"/>
<path id="Vector_22" d="M20.7141 22.6541H20.0627C19.2953 22.6541 18.6732 22.032 18.6732 21.2646V16.5056C18.6732 15.7382 19.2953 15.1161 20.0627 15.1161H20.7141C21.4815 15.1161 22.1036 15.7382 22.1036 16.5056V21.2646C22.1036 22.032 21.4815 22.6541 20.7141 22.6541Z" fill="url(#paint21_linear_2_781)"/>
<path id="Vector_23" d="M18.6732 18.3939V21.2646C18.6732 22.032 19.2953 22.6541 20.0627 22.6541H20.7141C21.4815 22.6541 22.1036 22.032 22.1036 21.2646V18.3939H18.6732Z" fill="url(#paint22_linear_2_781)"/>
<path id="Vector_24" d="M17.9622 24H17.2498C16.4992 24 15.8908 23.3916 15.8908 22.6411V15.1292C15.8908 14.3786 16.4992 13.7702 17.2498 13.7702H17.9622C18.7127 13.7702 19.3211 14.3786 19.3211 15.1292V22.6411C19.3211 23.3916 18.7127 24 17.9622 24Z" fill="url(#paint23_linear_2_781)"/>
<path id="Vector_25" d="M17.9622 13.7702H17.2498C17.1417 13.7702 17.0366 13.7832 16.9357 13.8071V23.9631C17.0386 23.9876 17.144 24 17.2498 24H17.9622C18.7127 24 19.3212 23.3916 19.3212 22.6411V15.1292C19.3212 14.3786 18.7127 13.7702 17.9622 13.7702Z" fill="url(#paint24_linear_2_781)"/>
<path id="Vector_26" d="M15.8908 20.0738V22.641C15.8908 23.3916 16.4992 24 17.2498 24H17.9622C18.7127 24 19.3211 23.3916 19.3211 22.641V20.0738H15.8908Z" fill="url(#paint25_linear_2_781)"/>
</g>
</g>
<defs>
<linearGradient id="paint0_linear_2_781" x1="14.0157" y1="0.3795" x2="16.7828" y2="6.67317" gradientUnits="userSpaceOnUse">
<stop stop-color="#FE5694"/>
<stop offset="1" stop-color="#E41F2D"/>
</linearGradient>
<linearGradient id="paint1_linear_2_781" x1="18.8566" y1="4.0598" x2="20.4721" y2="4.68675" gradientUnits="userSpaceOnUse">
<stop stop-color="#C41926" stop-opacity="0"/>
<stop offset="0.363" stop-color="#BF1C27" stop-opacity="0.363"/>
<stop offset="0.8" stop-color="#B12529" stop-opacity="0.8"/>
<stop offset="1" stop-color="#A72B2B"/>
</linearGradient>
<linearGradient id="paint2_linear_2_781" x1="15.4106" y1="3.1222" x2="15.4106" y2="0.854998" gradientUnits="userSpaceOnUse">
<stop stop-color="#C41926" stop-opacity="0"/>
<stop offset="0.363" stop-color="#BF1C27" stop-opacity="0.363"/>
<stop offset="0.8" stop-color="#B12529" stop-opacity="0.8"/>
<stop offset="1" stop-color="#A72B2B"/>
</linearGradient>
<linearGradient id="paint3_linear_2_781" x1="15.4106" y1="4.01442" x2="15.4106" y2="6.23245" gradientUnits="userSpaceOnUse">
<stop stop-color="#C41926" stop-opacity="0"/>
<stop offset="0.363" stop-color="#BF1C27" stop-opacity="0.363"/>
<stop offset="0.8" stop-color="#B12529" stop-opacity="0.8"/>
<stop offset="1" stop-color="#A72B2B"/>
</linearGradient>
<linearGradient id="paint4_linear_2_781" x1="11.6183" y1="8.17303" x2="18.8787" y2="15.4335" gradientUnits="userSpaceOnUse">
<stop stop-color="#FE5694"/>
<stop offset="1" stop-color="#E41F2D"/>
</linearGradient>
<linearGradient id="paint5_linear_2_781" x1="11.7011" y1="9.52191" x2="19.4599" y2="17.2807" gradientUnits="userSpaceOnUse">
<stop stop-color="#F5FBFF"/>
<stop offset="1" stop-color="#DBD5EF"/>
</linearGradient>
<linearGradient id="paint6_linear_2_781" x1="13.0498" y1="8.17322" x2="20.8086" y2="15.932" gradientUnits="userSpaceOnUse">
<stop stop-color="#F5FBFF"/>
<stop offset="1" stop-color="#DBD5EF"/>
</linearGradient>
<linearGradient id="paint7_linear_2_781" x1="15.4106" y1="14.3772" x2="15.4106" y2="17.6939" gradientUnits="userSpaceOnUse">
<stop stop-color="#C41926" stop-opacity="0"/>
<stop offset="0.363" stop-color="#BF1C27" stop-opacity="0.363"/>
<stop offset="0.8" stop-color="#B12529" stop-opacity="0.8"/>
<stop offset="1" stop-color="#A72B2B"/>
</linearGradient>
<linearGradient id="paint8_linear_2_781" x1="16.9997" y1="12.2464" x2="21.5572" y2="14.6879" gradientUnits="userSpaceOnUse">
<stop stop-color="#C41926" stop-opacity="0"/>
<stop offset="0.363" stop-color="#BF1C27" stop-opacity="0.363"/>
<stop offset="0.8" stop-color="#B12529" stop-opacity="0.8"/>
<stop offset="1" stop-color="#A72B2B"/>
</linearGradient>
<linearGradient id="paint9_linear_2_781" x1="12" y1="17.9277" x2="12" y2="20.0617" gradientUnits="userSpaceOnUse">
<stop stop-color="#F5FBFF"/>
<stop offset="1" stop-color="#DBD5EF"/>
</linearGradient>
<linearGradient id="paint10_linear_2_781" x1="12" y1="18.5426" x2="12" y2="20.0326" gradientUnits="userSpaceOnUse">
<stop stop-color="#DBD5EF" stop-opacity="0"/>
<stop offset="0.259" stop-color="#D9D2EC" stop-opacity="0.259"/>
<stop offset="0.429" stop-color="#D2CAE3" stop-opacity="0.43"/>
<stop offset="0.575" stop-color="#C6BCD4" stop-opacity="0.575"/>
<stop offset="0.707" stop-color="#B6A9BF" stop-opacity="0.707"/>
<stop offset="0.828" stop-color="#A08FA4" stop-opacity="0.828"/>
<stop offset="0.942" stop-color="#867082" stop-opacity="0.942"/>
<stop offset="1" stop-color="#765D6E"/>
</linearGradient>
<linearGradient id="paint11_linear_2_781" x1="23.5168" y1="18.8851" x2="21.961" y2="18.8851" gradientUnits="userSpaceOnUse">
<stop stop-color="#DBD5EF" stop-opacity="0"/>
<stop offset="0.259" stop-color="#D9D2EC" stop-opacity="0.259"/>
<stop offset="0.429" stop-color="#D2CAE3" stop-opacity="0.43"/>
<stop offset="0.575" stop-color="#C6BCD4" stop-opacity="0.575"/>
<stop offset="0.707" stop-color="#B6A9BF" stop-opacity="0.707"/>
<stop offset="0.828" stop-color="#A08FA4" stop-opacity="0.828"/>
<stop offset="0.942" stop-color="#867082" stop-opacity="0.942"/>
<stop offset="1" stop-color="#765D6E"/>
</linearGradient>
<linearGradient id="paint12_linear_2_781" x1="11.0018" y1="18.8851" x2="7.818" y2="18.8851" gradientUnits="userSpaceOnUse">
<stop stop-color="#DBD5EF" stop-opacity="0"/>
<stop offset="0.259" stop-color="#D9D2EC" stop-opacity="0.259"/>
<stop offset="0.429" stop-color="#D2CAE3" stop-opacity="0.43"/>
<stop offset="0.575" stop-color="#C6BCD4" stop-opacity="0.575"/>
<stop offset="0.707" stop-color="#B6A9BF" stop-opacity="0.707"/>
<stop offset="0.828" stop-color="#A08FA4" stop-opacity="0.828"/>
<stop offset="0.942" stop-color="#867082" stop-opacity="0.942"/>
<stop offset="1" stop-color="#765D6E"/>
</linearGradient>
<linearGradient id="paint13_linear_2_781" x1="2.6688" y1="18.8708" x2="5.89164" y2="18.9197" gradientUnits="userSpaceOnUse">
<stop stop-color="#5A5A5A"/>
<stop offset="1" stop-color="#444444"/>
</linearGradient>
<linearGradient id="paint14_linear_2_781" x1="2.95675" y1="18.8851" x2="4.8213" y2="18.8851" gradientUnits="userSpaceOnUse">
<stop stop-color="#433F43" stop-opacity="0"/>
<stop offset="1" stop-color="#1A1A1A"/>
</linearGradient>
<linearGradient id="paint15_linear_2_781" x1="3.61169" y1="21.1107" x2="3.61169" y2="22.5816" gradientUnits="userSpaceOnUse">
<stop stop-color="#433F43" stop-opacity="0"/>
<stop offset="1" stop-color="#1A1A1A"/>
</linearGradient>
<linearGradient id="paint16_linear_2_781" x1="5.27144" y1="18.8851" x2="8.54458" y2="18.8851" gradientUnits="userSpaceOnUse">
<stop stop-color="#5A5A5A"/>
<stop offset="1" stop-color="#444444"/>
</linearGradient>
<linearGradient id="paint17_linear_2_781" x1="6.80893" y1="18.8851" x2="8.05027" y2="18.8851" gradientUnits="userSpaceOnUse">
<stop stop-color="#433F43" stop-opacity="0"/>
<stop offset="1" stop-color="#1A1A1A"/>
</linearGradient>
<linearGradient id="paint18_linear_2_781" x1="6.39405" y1="22.1475" x2="6.39405" y2="23.9321" gradientUnits="userSpaceOnUse">
<stop stop-color="#433F43" stop-opacity="0"/>
<stop offset="1" stop-color="#1A1A1A"/>
</linearGradient>
<linearGradient id="paint19_linear_2_781" x1="19.4455" y1="18.8708" x2="22.6684" y2="18.9197" gradientUnits="userSpaceOnUse">
<stop stop-color="#5A5A5A"/>
<stop offset="1" stop-color="#444444"/>
</linearGradient>
<linearGradient id="paint20_linear_2_781" x1="19.7335" y1="18.8851" x2="21.598" y2="18.8851" gradientUnits="userSpaceOnUse">
<stop stop-color="#433F43" stop-opacity="0"/>
<stop offset="1" stop-color="#1A1A1A"/>
</linearGradient>
<linearGradient id="paint21_linear_2_781" x1="20.9097" y1="18.8851" x2="19.0997" y2="18.8851" gradientUnits="userSpaceOnUse">
<stop stop-color="#433F43" stop-opacity="0"/>
<stop offset="1" stop-color="#1A1A1A"/>
</linearGradient>
<linearGradient id="paint22_linear_2_781" x1="20.3884" y1="21.1107" x2="20.3884" y2="22.5816" gradientUnits="userSpaceOnUse">
<stop stop-color="#433F43" stop-opacity="0"/>
<stop offset="1" stop-color="#1A1A1A"/>
</linearGradient>
<linearGradient id="paint23_linear_2_781" x1="16.4834" y1="18.8851" x2="19.7565" y2="18.8851" gradientUnits="userSpaceOnUse">
<stop stop-color="#5A5A5A"/>
<stop offset="1" stop-color="#444444"/>
</linearGradient>
<linearGradient id="paint24_linear_2_781" x1="18.0208" y1="18.8851" x2="19.2622" y2="18.8851" gradientUnits="userSpaceOnUse">
<stop stop-color="#433F43" stop-opacity="0"/>
<stop offset="1" stop-color="#1A1A1A"/>
</linearGradient>
<linearGradient id="paint25_linear_2_781" x1="17.606" y1="22.1475" x2="17.606" y2="23.9321" gradientUnits="userSpaceOnUse">
<stop stop-color="#433F43" stop-opacity="0"/>
<stop offset="1" stop-color="#1A1A1A"/>
</linearGradient>
<clipPath id="clip0_2_781">
<rect width="24" height="24" fill="white"/>
</clipPath>
</defs>
</svg>
