<svg width="24" height="24" viewBox="0 0 24 24" fill="none" xmlns="http://www.w3.org/2000/svg">
<path d="M10.7564 15.6C10.7353 15.7419 10.7046 15.8822 10.6644 16.02C10.6174 16.1845 10.5572 16.3451 10.4844 16.5C10.4641 16.5414 10.4341 16.5773 10.3968 16.6045C10.3594 16.6317 10.3161 16.6493 10.2704 16.6559C10.2247 16.6624 10.1781 16.6577 10.1347 16.6421C10.0912 16.6265 10.0523 16.6005 10.0212 16.5664C8.91191 15.3272 7.59784 14.2879 6.13639 13.494C6.06164 13.4536 5.97464 13.4422 5.892 13.4619C5.80936 13.4816 5.73688 13.5311 5.6884 13.6008C5.63991 13.6706 5.61882 13.7558 5.62915 13.8401C5.63948 13.9244 5.6805 14.002 5.74439 14.058C6.97785 15.1213 8.10429 16.3028 9.10759 17.5856C9.13301 17.6194 9.15071 17.6583 9.15944 17.6997C9.16817 17.7411 9.16771 17.7839 9.1581 17.8251C9.14849 17.8663 9.12996 17.9049 9.10381 17.9381C9.07767 17.9714 9.04455 17.9985 9.00679 18.0176C8.54958 18.2433 8.05073 18.3722 7.54143 18.3964C7.03212 18.4205 6.52331 18.3394 6.04679 18.158C2.17879 16.762 2.83479 13.886 0.510789 12.418C0.478756 12.4015 0.451584 12.3769 0.431967 12.3467C0.41235 12.3165 0.400967 12.2817 0.398946 12.2457C0.396925 12.2097 0.404337 12.1738 0.420446 12.1416C0.436555 12.1094 0.460804 12.0819 0.490789 12.062C1.47479 11.53 4.68279 10.054 8.03879 11.262C8.8215 11.5453 9.50328 12.0531 9.99879 12.722L10.7564 15.6Z" fill="#8BA820"/>
<path d="M12.4644 16.924C12.4303 17.0147 12.4297 17.1146 12.4629 17.2057C12.4961 17.2967 12.5607 17.3729 12.6452 17.4204C13.5817 17.8945 14.6377 18.0805 15.6798 17.955C16.722 17.8295 17.7036 17.3981 18.5008 16.7152C23.2688 12.8752 20.9528 9.11918 23.5208 5.91878C23.5574 5.88021 23.5833 5.8327 23.5958 5.78099C23.6083 5.72928 23.607 5.67519 23.592 5.62415C23.577 5.57311 23.5488 5.5269 23.5104 5.49016C23.4719 5.45341 23.4245 5.42742 23.3728 5.41478C21.7288 5.13478 16.4968 4.59078 12.3488 7.91518C9.95879 9.84358 9.29639 13.2628 10.8108 15.6896C10.8368 15.7322 10.8736 15.7671 10.9175 15.7908C10.9614 15.8145 11.0108 15.8261 11.0607 15.8245C11.1105 15.8228 11.159 15.808 11.2013 15.7815C11.2436 15.755 11.278 15.7178 11.3012 15.6736C11.8332 14.642 13.3464 11.948 15.4612 10.1992C15.5316 10.141 15.621 10.1106 15.7123 10.1139C15.8037 10.1172 15.8906 10.1539 15.9567 10.217C16.0228 10.2801 16.0634 10.3653 16.0709 10.4564C16.0784 10.5475 16.0521 10.6381 15.9972 10.7112C14.5238 12.5993 13.3337 14.6923 12.4644 16.924Z" fill="#9CC824"/>
</svg>
