<svg width="24" height="24" viewBox="0 0 24 24" fill="none" xmlns="http://www.w3.org/2000/svg">
<g id="Frame">
<g id="Group">
<path id="Vector" d="M16.125 22.875H3.375L1.875 10.875H17.625L16.125 22.875Z" fill="#E82F3E"/>
<path id="Vector_2" d="M21.75 22.875H17.25L16.5 15.375H22.5L21.75 22.875Z" fill="#0296E5"/>
<path id="Vector_3" d="M22.2052 18.323L21.9839 20.5341L16.9266 19.6416L16.6978 17.3513L22.2052 18.323Z" fill="#0296E5"/>
<path id="Vector_4" d="M22.875 13.875H16.125L16.5 12.375H22.5L22.875 13.875Z" fill="#EAEAE8"/>
<path id="Vector_5" d="M21 12.375H20.25V8.625L21.375 6.375H22.125L21 9V12.375Z" fill="#0276B4"/>
<g id="Group_2">
<path id="Vector_6" d="M8.625 10.875H10.875V22.875H8.625V10.875ZM6.75 22.875H4.875L4.125 10.875H6.375L6.75 22.875ZM14.625 22.875H12.75L13.125 10.875H15.375L14.625 22.875Z" fill="#CBCBCB"/>
</g>
<path id="Vector_7" d="M13.6741 5.62669C13.7198 5.51238 13.7426 5.39017 13.7411 5.26705C13.7396 5.14393 13.7139 5.02231 13.6654 4.90914C13.6169 4.79596 13.5466 4.69345 13.4585 4.60745C13.3703 4.52146 13.2661 4.45366 13.1518 4.40794C13.1975 4.29363 13.2203 4.17144 13.2188 4.04833C13.2173 3.92523 13.1916 3.80362 13.1431 3.69046C13.0946 3.5773 13.0243 3.4748 12.9362 3.38881C12.8481 3.30283 12.7439 3.23503 12.6296 3.18931C12.5153 3.14359 12.3931 3.12082 12.27 3.12232C12.1469 3.12382 12.0252 3.14956 11.9121 3.19805C11.7989 3.24655 11.6964 3.31686 11.6104 3.40497C11.5244 3.49308 11.4567 3.59726 11.4109 3.71157C11.1801 3.61922 10.922 3.62237 10.6935 3.72031C10.4649 3.81825 10.2846 4.00297 10.1923 4.23383C10.1 4.46468 10.1031 4.72277 10.201 4.95131C10.299 5.17984 10.4837 5.36011 10.7146 5.45246C10.7243 5.45635 10.7342 5.45897 10.7439 5.46254C10.7437 5.46299 10.7435 5.46346 10.7433 5.46394C10.6509 5.6948 10.6541 5.95288 10.752 6.18142C10.85 6.40996 11.0347 6.59023 11.2656 6.68258C11.4964 6.77492 11.7545 6.77178 11.983 6.67383C12.2116 6.57589 12.3918 6.39117 12.4842 6.16032C12.4842 6.1598 12.4845 6.15929 12.4847 6.15882C12.7132 6.24183 12.9651 6.23272 13.187 6.13342C13.409 6.03412 13.5837 5.85241 13.6741 5.62669Z" fill="#D18D28"/>
<path id="Vector_8" d="M8.80686 4.64224C8.71623 4.41072 8.53734 4.22468 8.30955 4.12504C8.08176 4.02541 7.82372 4.02034 7.59219 4.11096C7.50158 3.87941 7.32271 3.69334 7.09491 3.59368C6.86712 3.49402 6.60906 3.48893 6.37752 3.57954C6.14597 3.67014 5.9599 3.84901 5.86024 4.07681C5.76058 4.30461 5.75549 4.56266 5.8461 4.79421C5.61455 4.88481 5.42848 5.06369 5.32882 5.29148C5.22916 5.51928 5.22407 5.77733 5.31467 6.00888C5.40528 6.24043 5.58415 6.4265 5.81195 6.52616C6.03974 6.62582 6.2978 6.63091 6.52935 6.5403C6.5391 6.5365 6.5481 6.53163 6.55747 6.52755C6.55747 6.52802 6.55775 6.52854 6.55794 6.52905C6.6028 6.6437 6.66981 6.74839 6.75513 6.83715C6.84045 6.9259 6.94242 6.99698 7.05521 7.04633C7.16801 7.09568 7.28941 7.12232 7.41251 7.12475C7.5356 7.12718 7.65796 7.10534 7.77261 7.06047C7.88726 7.01561 7.99195 6.9486 8.08071 6.86328C8.16946 6.77796 8.24054 6.67599 8.28989 6.5632C8.33924 6.45041 8.36588 6.329 8.36831 6.20591C8.37074 6.08282 8.3489 5.96045 8.30403 5.8458C8.30403 5.84529 8.30356 5.84486 8.30338 5.84435C8.52693 5.74854 8.70446 5.56954 8.79842 5.3452C8.89238 5.12086 8.89541 4.86877 8.80686 4.64224Z" fill="#FBB540"/>
<path id="Vector_9" d="M4.68186 2.25255C4.637 2.1379 4.56999 2.03321 4.48467 1.94445C4.39935 1.8557 4.29738 1.78461 4.18459 1.73527C4.07179 1.68592 3.95039 1.65927 3.82729 1.65685C3.7042 1.65442 3.58184 1.67626 3.46719 1.72113C3.42233 1.60648 3.35532 1.50178 3.27 1.41303C3.18468 1.32428 3.08271 1.2532 2.96991 1.20385C2.85712 1.1545 2.73571 1.12785 2.61262 1.12543C2.48953 1.123 2.36717 1.14484 2.25252 1.1897C2.13787 1.23457 2.03318 1.30157 1.94442 1.38689C1.85567 1.47222 1.78459 1.57419 1.73524 1.68698C1.68589 1.79977 1.65924 1.92118 1.65682 2.04427C1.65439 2.16736 1.67623 2.28973 1.7211 2.40438C1.48955 2.49498 1.30348 2.67386 1.20382 2.90165C1.10416 3.12945 1.09907 3.3875 1.18967 3.61905C1.28028 3.85059 1.45915 4.03666 1.68695 4.13633C1.91474 4.23599 2.1728 4.24107 2.40435 4.15047C2.4141 4.14667 2.4231 4.14184 2.43247 4.13772C2.43247 4.13824 2.43275 4.1387 2.43294 4.13922C2.52354 4.37077 2.70242 4.55684 2.93021 4.6565C3.15801 4.75616 3.41606 4.76125 3.64761 4.67064C3.87916 4.58004 4.06523 4.40116 4.16489 4.17337C4.26455 3.94557 4.26964 3.68752 4.17903 3.45597C4.17903 3.45545 4.17856 3.45503 4.17838 3.45456C4.4019 3.35874 4.57941 3.17976 4.67336 2.95544C4.76732 2.73113 4.77037 2.47907 4.68186 2.25255Z" fill="#D18D28"/>
<path id="Vector_10" d="M5.625 8.625C5.625 8.37636 5.52623 8.1379 5.35041 7.96209C5.1746 7.78627 4.93614 7.6875 4.6875 7.6875C4.6875 7.43886 4.58873 7.2004 4.41291 7.02459C4.2371 6.84877 3.99864 6.75 3.75 6.75C3.50136 6.75 3.2629 6.84877 3.08709 7.02459C2.91127 7.2004 2.8125 7.43886 2.8125 7.6875C2.56386 7.6875 2.3254 7.78627 2.14959 7.96209C1.97377 8.1379 1.875 8.37636 1.875 8.625C1.875 8.87364 1.97377 9.1121 2.14959 9.28791C2.3254 9.46373 2.56386 9.5625 2.8125 9.5625C2.82295 9.5625 2.83308 9.56128 2.84348 9.56095V9.5625C2.84348 9.81114 2.94226 10.0496 3.11807 10.2254C3.29389 10.4012 3.53234 10.5 3.78098 10.5C4.02962 10.5 4.26808 10.4012 4.4439 10.2254C4.61971 10.0496 4.71848 9.81114 4.71848 9.5625V9.56095C4.9615 9.55308 5.19194 9.45104 5.3611 9.27638C5.53026 9.10173 5.6249 8.86815 5.625 8.625Z" fill="#FBB540"/>
<path id="Vector_11" d="M9.375 8.625C9.375 8.37636 9.27623 8.1379 9.10041 7.96209C8.9246 7.78627 8.68614 7.6875 8.4375 7.6875C8.4375 7.43886 8.33873 7.2004 8.16291 7.02459C7.9871 6.84877 7.74864 6.75 7.5 6.75C7.25136 6.75 7.0129 6.84877 6.83709 7.02459C6.66127 7.2004 6.5625 7.43886 6.5625 7.6875C6.31386 7.6875 6.0754 7.78627 5.89959 7.96209C5.72377 8.1379 5.625 8.37636 5.625 8.625C5.625 8.87364 5.72377 9.1121 5.89959 9.28791C6.0754 9.46373 6.31386 9.5625 6.5625 9.5625C6.57295 9.5625 6.58308 9.56128 6.59348 9.56095V9.5625C6.59348 9.81114 6.69226 10.0496 6.86807 10.2254C7.04389 10.4012 7.28234 10.5 7.53098 10.5C7.77962 10.5 8.01808 10.4012 8.1939 10.2254C8.36971 10.0496 8.46848 9.81114 8.46848 9.5625V9.56095C8.7115 9.55308 8.94194 9.45104 9.1111 9.27638C9.28026 9.10173 9.3749 8.86815 9.375 8.625Z" fill="#D18D28"/>
<path id="Vector_12" d="M13.125 8.625C13.125 8.37636 13.0262 8.1379 12.8504 7.96209C12.6746 7.78627 12.4361 7.6875 12.1875 7.6875C12.1875 7.43886 12.0887 7.2004 11.9129 7.02459C11.7371 6.84877 11.4986 6.75 11.25 6.75C11.0014 6.75 10.7629 6.84877 10.5871 7.02459C10.4113 7.2004 10.3125 7.43886 10.3125 7.6875C10.0639 7.6875 9.8254 7.78627 9.64959 7.96209C9.47377 8.1379 9.375 8.37636 9.375 8.625C9.375 8.87364 9.47377 9.1121 9.64959 9.28791C9.8254 9.46373 10.0639 9.5625 10.3125 9.5625C10.323 9.5625 10.3331 9.56128 10.3435 9.56095V9.5625C10.3435 9.81114 10.4423 10.0496 10.6181 10.2254C10.7939 10.4012 11.0323 10.5 11.281 10.5C11.5296 10.5 11.7681 10.4012 11.9439 10.2254C12.1197 10.0496 12.2185 9.81114 12.2185 9.5625V9.56095C12.4615 9.55308 12.6919 9.45104 12.8611 9.27638C13.0303 9.10173 13.1249 8.86815 13.125 8.625Z" fill="#FBB540"/>
<path id="Vector_13" d="M16.875 8.625C16.875 8.37636 16.7762 8.1379 16.6004 7.96209C16.4246 7.78627 16.1861 7.6875 15.9375 7.6875C15.9375 7.43886 15.8387 7.2004 15.6629 7.02459C15.4871 6.84877 15.2486 6.75 15 6.75C14.7514 6.75 14.5129 6.84877 14.3371 7.02459C14.1613 7.2004 14.0625 7.43886 14.0625 7.6875C13.8139 7.6875 13.5754 7.78627 13.3996 7.96209C13.2238 8.1379 13.125 8.37636 13.125 8.625C13.125 8.87364 13.2238 9.1121 13.3996 9.28791C13.5754 9.46373 13.8139 9.5625 14.0625 9.5625C14.073 9.5625 14.0831 9.56128 14.0935 9.56095V9.5625C14.0935 9.81114 14.1923 10.0496 14.3681 10.2254C14.5439 10.4012 14.7823 10.5 15.031 10.5C15.2796 10.5 15.5181 10.4012 15.6939 10.2254C15.8697 10.0496 15.9685 9.81114 15.9685 9.5625V9.56095C16.2115 9.55308 16.4419 9.45104 16.6111 9.27638C16.7803 9.10173 16.8749 8.86815 16.875 8.625Z" fill="#D18D28"/>
<path id="Vector_14" d="M18.2782 4.48241C18.3881 4.25938 18.4049 4.00183 18.3249 3.76641C18.2449 3.531 18.0747 3.337 17.8517 3.2271C17.9616 3.00406 17.9784 2.7465 17.8984 2.51108C17.8184 2.27565 17.6482 2.08165 17.4251 1.97174C17.2021 1.86184 16.9445 1.84503 16.7091 1.92503C16.4737 2.00503 16.2797 2.17527 16.1698 2.3983C15.9467 2.28841 15.6892 2.27161 15.4537 2.35161C15.2183 2.43161 15.0243 2.60185 14.9144 2.82489C14.8045 3.04793 14.7877 3.30549 14.8677 3.54091C14.9477 3.77633 15.118 3.97033 15.341 4.08023C15.3504 4.08491 15.36 4.08824 15.3695 4.09251C15.3695 4.09298 15.3689 4.0934 15.3687 4.09387C15.3143 4.2043 15.2822 4.32438 15.2741 4.44723C15.2661 4.57009 15.2824 4.69331 15.322 4.80988C15.3616 4.92645 15.4238 5.03408 15.505 5.12661C15.5862 5.21915 15.6849 5.29479 15.7953 5.3492C15.9057 5.40362 16.0258 5.43575 16.1487 5.44376C16.2715 5.45177 16.3947 5.43551 16.5113 5.3959C16.6279 5.35629 16.7355 5.2941 16.828 5.2129C16.9206 5.13169 16.9962 5.03305 17.0506 4.92262C17.0506 4.92215 17.051 4.92168 17.0512 4.92121C17.2727 5.02163 17.5246 5.03199 17.7535 4.9501C17.9825 4.86822 18.1707 4.7005 18.2782 4.48241Z" fill="#FBB540"/>
<path id="Vector_15" d="M9.75 19.875C11.614 19.875 13.125 18.364 13.125 16.5C13.125 14.636 11.614 13.125 9.75 13.125C7.88604 13.125 6.375 14.636 6.375 16.5C6.375 18.364 7.88604 19.875 9.75 19.875Z" fill="#EAEAE8"/>
<path id="Vector_16" d="M22.2052 18.323L21.9839 20.5341L16.9266 19.6416L16.6978 17.3513L22.2052 18.323Z" fill="#0276B4"/>
<path id="Vector_17" d="M15.75 13.875H23.25V15.375H15.75V13.875Z" fill="#CBCBCB"/>
<path id="Vector_18" d="M17.625 9.375H1.875C1.46079 9.375 1.125 9.71079 1.125 10.125C1.125 10.5392 1.46079 10.875 1.875 10.875H17.625C18.0392 10.875 18.375 10.5392 18.375 10.125C18.375 9.71079 18.0392 9.375 17.625 9.375Z" fill="#EAEAE8"/>
<path id="Vector_19" d="M20.25 11.625H21V12.375H20.25V11.625Z" fill="#015078"/>
</g>
</g>
</svg>
