<svg width="24" height="24" viewBox="0 0 24 24" fill="none" xmlns="http://www.w3.org/2000/svg">
<g id="Frame" clip-path="url(#clip0_2_828)">
<g id="Group">
<path id="Vector" d="M24 5.01437V16.9675C24 18.5186 22.4236 19.78 20.4844 19.78C19.5638 19.78 18.7242 19.4955 18.0975 19.0309C17.4037 18.5167 16.9688 17.7822 16.9688 16.9675C16.9688 16.1528 17.4037 15.4183 18.0975 14.9041C18.7242 14.4395 19.5638 14.155 20.4844 14.155C21.2789 14.155 22.0045 14.3748 22.5938 14.7316V8.89328L18.0975 10.8203L14.1562 12.5092V21.1862C14.1562 22.7373 12.5798 23.9987 10.6406 23.9987C8.70141 23.9987 7.125 22.7373 7.125 21.1862C7.125 19.6352 8.70141 18.3737 10.6406 18.3737C11.4352 18.3737 12.1608 18.5936 12.75 18.9503V9.23312C12.75 8.9514 12.9173 8.69734 13.1756 8.58718L23.0194 4.36843C23.2378 4.27328 23.4877 4.29765 23.6841 4.4275C23.8819 4.55781 24 4.77812 24 5.01437Z" fill="#FF8FB8"/>
<path id="Vector_2" d="M11.25 7.73312C11.25 9.37839 9.8015 10.8831 9.63275 11.0378C9.36556 11.319 8.91566 11.319 8.64842 11.0378C8.36717 10.7706 8.36717 10.3206 8.64842 10.0534C8.97182 9.71589 9.84369 8.64714 9.84369 7.73312C9.84369 6.22844 8.29686 4.03469 7.03119 2.53V12.655C7.03119 12.7675 7.01713 12.9081 7.00302 13.0487C6.86244 13.8081 6.35619 14.469 5.62494 14.905C5.04842 15.2565 4.30306 15.4675 3.51556 15.4675C1.57494 15.4675 -6.10352e-05 14.2018 -6.10352e-05 12.655C-6.10352e-05 11.1081 1.57494 9.8425 3.51556 9.8425C4.31713 9.8425 5.03436 10.0675 5.62494 10.419V0.701874C5.62494 0.420624 5.79369 0.167499 6.06088 0.0549525C6.32806 -0.0575944 6.63739 0.0128119 6.82021 0.20964C7.28436 0.65964 11.25 4.72375 11.25 7.73312Z" fill="#979FEF"/>
<path id="Vector_3" d="M11.25 7.73312C11.25 9.37839 9.8015 10.8831 9.63275 11.0378C9.36556 11.319 8.91566 11.319 8.64842 11.0378C8.36717 10.7706 8.36717 10.3206 8.64842 10.0534C8.97181 9.71589 9.84369 8.64714 9.84369 7.73312C9.84369 6.22844 8.29686 4.03469 7.03119 2.53V12.655C7.03119 12.7675 7.01713 12.9081 7.00302 13.0487C6.86244 13.8081 6.35619 14.469 5.62494 14.905V0.701874C5.62494 0.420624 5.79369 0.167499 6.06088 0.0549525C6.32806 -0.0575944 6.63739 0.0128119 6.8202 0.20964C7.28436 0.65964 11.25 4.72375 11.25 7.73312Z" fill="#6B77E8"/>
<path id="Vector_4" d="M23.6841 4.4275C23.4877 4.29765 23.2378 4.27328 23.0194 4.36843L18.0975 6.47781V10.8203L22.5938 8.89328V14.7316C22.0045 14.3748 21.2789 14.155 20.4844 14.155C19.5638 14.155 18.7242 14.4395 18.0975 14.9041C17.4037 15.4183 16.9688 16.1528 16.9688 16.9675C16.9688 17.7822 17.4037 18.5167 18.0975 19.0309C18.7242 19.4955 19.5638 19.78 20.4844 19.78C22.4236 19.78 24 18.5186 24 16.9675V5.01437C24 4.77812 23.8819 4.55781 23.6841 4.4275Z" fill="#FF5F96"/>
</g>
</g>
<defs>
<clipPath id="clip0_2_828">
<rect width="24" height="24" fill="white"/>
</clipPath>
</defs>
</svg>
