<svg width="24" height="24" viewBox="0 0 24 24" fill="none" xmlns="http://www.w3.org/2000/svg">
<g id="Frame" clip-path="url(#clip0_2_741)">
<g id="Group">
<g id="Group_2">
<path id="Vector" d="M3.53912 15.931C2.46335 16.2825 1.61577 16.865 1.14521 17.8062C0.548507 19.001 0.85182 20.1093 1.28411 20.8776C1.7164 21.6458 2.29185 22.1248 2.29185 22.1248C2.67879 22.4451 3.16068 21.8669 2.77375 21.5451C2.77375 21.5451 2.29894 21.1454 1.94035 20.5105C1.58317 19.8727 1.36348 19.0463 1.81562 18.1406C2.17846 17.415 2.85028 16.943 3.77156 16.6425C4.70418 16.3378 5.89192 16.2173 7.20155 16.2003C7.74298 16.2386 7.73306 15.4009 7.19163 15.4519C5.84515 15.4689 4.59221 15.5866 3.53912 15.931ZM18.006 11.4607C17.5836 11.4919 17.5284 12.0886 17.9351 12.1977C18.8366 12.4698 19.5538 12.8001 19.9166 13.1445C20.098 13.3174 20.1916 13.4761 20.2228 13.6491C20.2539 13.822 20.2298 14.0261 20.0952 14.2968C19.755 14.9771 19.0038 15.3811 17.8841 15.5965C16.7644 15.8091 15.3187 15.8148 13.7568 15.7453C13.2565 15.7226 13.2225 16.4738 13.7228 16.4965C15.3074 16.5674 16.7928 16.5674 18.0244 16.3321C19.2575 16.0968 20.2823 15.6022 20.767 14.6313C20.9569 14.2529 21.0264 13.8716 20.9612 13.5158C20.8874 13.1619 20.7027 12.8407 20.4339 12.5988C19.9053 12.0956 19.1045 11.7626 18.1548 11.4777C18.1069 11.4621 18.0563 11.4563 18.006 11.4607ZM1.12962 1.50095C1.12962 1.50095 5.36183 1.50804 8.61323 2.11325C10.487 2.46192 11.6053 2.92964 11.995 3.43138C12.1892 3.68225 12.1935 3.92746 12.0234 4.24211C11.8207 4.61629 11.3473 5.10669 10.3991 5.72466C9.28931 6.45034 8.59764 7.0598 8.22771 7.64942C8.03921 7.95131 7.93857 8.24612 7.93999 8.54377C7.94141 8.84141 8.05338 9.11496 8.23055 9.34174C8.58772 9.79529 9.17309 10.0901 9.8846 10.3438C10.5947 10.5989 11.4451 10.8044 12.3579 10.9958C12.8582 11.1163 13.0198 10.3537 12.5138 10.2616C11.6152 10.0731 10.7889 9.87183 10.1369 9.63796C9.4849 9.40552 9.01718 9.1263 8.823 8.88251C8.74043 8.78648 8.69382 8.66472 8.69119 8.5381C8.69119 8.41621 8.73229 8.25746 8.86127 8.04769C9.12348 7.62958 9.74428 7.04988 10.8101 6.35254C11.7739 5.72182 12.3735 5.16197 12.681 4.59786C13.024 3.97423 12.9291 3.41154 12.5875 2.97074C11.9043 2.09199 10.1922 1.64127 8.75213 1.37339C5.38593 0.746921 1.12962 0.749756 1.12962 0.749756C0.620792 0.752591 0.626461 1.50095 1.12962 1.50095Z" fill="#356287"/>
</g>
<path id="Vector_2" d="M5.33206 17.2662L4.33849 18.2612C4.29145 18.3078 4.25853 18.3667 4.24353 18.4312L3.23154 22.8194C3.21791 22.8776 3.21936 22.9383 3.23576 22.9958C3.25215 23.0534 3.28295 23.1057 3.32524 23.148C3.36753 23.1903 3.41991 23.2211 3.47742 23.2375C3.53494 23.2539 3.59568 23.2554 3.65391 23.2417L8.04203 22.2283C8.10638 22.2137 8.16532 22.1813 8.21211 22.1348L9.11922 21.2277L5.33206 17.2662Z" fill="#FFCCAA"/>
<path id="Vector_3" d="M8.0406 22.2283C8.10495 22.2137 8.16389 22.1812 8.21068 22.1347L9.11779 21.2262L7.22562 19.2462L3.32507 23.1467C3.36674 23.1891 3.41859 23.2201 3.47567 23.2367C3.53275 23.2534 3.59314 23.2551 3.65106 23.2417L8.0406 22.2283Z" fill="#FFB380"/>
<path id="Vector_4" d="M16.2188 6.37949L4.67585 17.9238C4.63108 17.9688 4.5993 18.025 4.58389 18.0865C4.56848 18.148 4.57001 18.2126 4.58832 18.2733C4.60663 18.3341 4.64103 18.3887 4.68788 18.4315C4.73473 18.4743 4.79228 18.5036 4.85443 18.5163L6.26044 18.7969V19.8599C6.26044 20.0541 6.41635 20.2114 6.61195 20.2114H7.67496L7.9556 21.616C7.96811 21.6783 7.99726 21.736 8.03994 21.783C8.08263 21.83 8.13726 21.8646 8.19803 21.8831C8.25879 21.9015 8.32342 21.9032 8.38506 21.8879C8.44669 21.8725 8.50301 21.8408 8.54805 21.796L20.0924 10.2531C20.158 10.1872 20.1948 10.098 20.1948 10.0051C20.1948 9.9121 20.158 9.82292 20.0924 9.75704L16.7148 6.37807C16.6489 6.31247 16.5598 6.27563 16.4668 6.27563C16.3738 6.27563 16.2846 6.31389 16.2188 6.37949Z" fill="#5299D3"/>
<path id="Vector_5" d="M3.76305 20.5119L3.23154 22.8193C3.21791 22.8776 3.21936 22.9383 3.23576 22.9958C3.25215 23.0534 3.28295 23.1057 3.32524 23.148C3.36753 23.1903 3.41991 23.2211 3.47742 23.2375C3.53494 23.2539 3.59568 23.2554 3.65391 23.2417L5.94152 22.713L3.76305 20.5119Z" fill="#356287"/>
<path id="Vector_6" d="M18.4043 8.06757L6.36249 20.108C6.39519 20.1408 6.43407 20.1669 6.47688 20.1846C6.51969 20.2024 6.56559 20.2115 6.61194 20.2114H7.67495L7.95559 21.616C7.9681 21.6783 7.99725 21.736 8.03994 21.783C8.08262 21.83 8.13725 21.8646 8.19802 21.8831C8.25879 21.9016 8.32342 21.9032 8.38505 21.8879C8.44668 21.8725 8.50301 21.8408 8.54804 21.796L20.0924 10.2531C20.158 10.1872 20.1948 10.0981 20.1948 10.0051C20.1948 9.91211 20.158 9.82293 20.0924 9.75705L18.4043 8.06757Z" fill="#3587CB"/>
<path id="Vector_7" d="M20.1179 3.22162C19.6601 3.22162 19.2037 3.39454 18.8564 3.74179L16.2188 6.37948L20.0924 10.2531L22.7286 7.61683C23.4231 6.92233 23.4231 5.78845 22.7286 5.09394L21.3793 3.74179C21.2136 3.57633 21.0169 3.44521 20.8005 3.35594C20.584 3.26668 20.352 3.22104 20.1179 3.22162Z" fill="#EEEEEE"/>
<path id="Vector_8" d="M22.054 4.41785L18.1562 8.31556L20.0924 10.2531L22.7286 7.61681C23.4231 6.92231 23.4231 5.78842 22.7286 5.09392L22.054 4.41785Z" fill="#D0D0D0"/>
<path id="Vector_9" d="M4.85441 21.616L3.32367 23.1467C3.36569 23.1895 3.41803 23.2207 3.47563 23.2373C3.53323 23.2539 3.59414 23.2554 3.65249 23.2417L5.9401 22.713L4.85441 21.616Z" fill="#2C5170"/>
<path id="Vector_10" d="M17.2662 5.33203L15.1713 7.42688L19.0435 11.3005L21.1412 9.20565L17.2662 5.33203Z" fill="#FFCA28"/>
<path id="Vector_11" d="M19.2037 7.26813L17.106 9.36439L19.0435 11.3005L21.1412 9.20565L19.2037 7.26813Z" fill="#ECB200"/>
</g>
</g>
<defs>
<clipPath id="clip0_2_741">
<rect width="24" height="24" fill="white"/>
</clipPath>
</defs>
</svg>
