<svg width="24" height="24" viewBox="0 0 24 24" fill="none" xmlns="http://www.w3.org/2000/svg">
<g clip-path="url(#clip0_2_694)">
<path d="M8.23589 10.6682C8.87897 9.93043 9.57553 9.38396 10.2058 9.07852C10.1698 9.02329 10.1304 8.97037 10.0878 8.92009C9.39061 8.09959 8.06887 8.30246 7.13559 9.37323C6.20231 10.444 6.01092 11.9772 6.70805 12.7977C6.74988 12.847 6.79491 12.8934 6.84286 12.9368C7.1137 12.2084 7.59286 11.406 8.23589 10.6682Z" fill="#59CC56"/>
<path opacity="0.2" d="M10.0877 8.92007C10.0665 8.89512 10.0445 8.87089 10.0217 8.84741C9.33377 9.08647 8.55695 9.54065 7.80344 10.182C7.20241 10.6936 6.69358 11.2584 6.30597 11.8175C6.35055 12.1922 6.4825 12.5324 6.70797 12.7977C6.7498 12.847 6.79484 12.8935 6.84278 12.9368C7.11363 12.2084 7.59278 11.406 8.23581 10.6683C8.87889 9.93046 9.57545 9.38399 10.2056 9.07855C10.1698 9.02325 10.1304 8.97032 10.0877 8.92007Z" fill="black"/>
<path d="M7.13808 13.3244C7.1926 13.6475 7.28503 13.9715 7.40564 14.2731C7.56652 14.6754 7.78472 15.0405 8.04502 15.3505C8.5613 15.9653 9.27249 16.3367 10.0539 16.5063C10.6144 16.6279 10.9701 17.1809 10.8485 17.7413C10.7048 18.403 9.98245 18.7248 9.3788 18.4552C8.85042 18.2191 8.34394 17.9066 7.89999 17.5202C7.45888 17.1365 7.09102 16.6759 6.81427 16.1609C6.54333 15.6559 6.36441 15.121 6.26855 14.5853C6.19678 14.1841 6.16683 13.7833 6.18127 13.3787C6.18619 13.2414 6.19838 13.097 6.21375 12.9588C6.22543 12.8549 6.27389 12.7586 6.35037 12.6873C6.42685 12.616 6.52631 12.5744 6.63077 12.5701C6.73523 12.5657 6.83781 12.5989 6.91995 12.6636C7.0021 12.7282 7.05841 12.8202 7.07869 12.9227C7.10409 13.052 7.11595 13.1932 7.13808 13.3244Z" fill="#783D26"/>
<path opacity="0.2" d="M9.94742 17.9184C9.41904 17.6824 8.91256 17.3699 8.4686 16.9835C8.0275 16.5998 7.65964 16.1392 7.38288 15.6242C7.11195 15.1192 6.93303 14.5843 6.83717 14.0486C6.75063 13.5648 6.72256 13.0732 6.76545 12.5852C5.95479 12.3688 6.1872 14.1307 6.26853 14.5853C6.36434 15.121 6.54331 15.656 6.81424 16.1609C7.0911 16.6759 7.45894 17.1364 7.89996 17.5203C8.34392 17.9067 8.85035 18.2192 9.37878 18.4552C9.90326 18.6894 10.5424 18.4812 10.7783 17.9522C10.5124 18.0576 10.2092 18.0353 9.94742 17.9184Z" fill="black"/>
<path d="M15.9812 16.8377C15.5894 14.6758 15.6924 12.1395 16.3875 9.54526C16.7124 8.33284 17.1432 7.19641 17.6546 6.15812L15.6116 5.61072C15.5354 6.76558 15.3402 7.9652 15.0154 9.17758C14.3203 11.7718 13.1413 14.0198 11.7211 15.6961L15.9812 16.8377Z" fill="#783D26"/>
<path opacity="0.2" d="M16.9919 7.68162C16.8898 7.36001 16.6525 7.10422 16.3294 7.01764C16.3283 7.01736 16.3272 7.01717 16.3261 7.01684C16.3792 6.61845 16.4197 6.22358 16.4454 5.83419L15.6116 5.61078C15.4814 6.79761 15.4118 7.46281 15.223 8.32306C15.1603 8.60947 15.0911 8.8944 15.0154 9.17764C14.3203 11.7719 13.1413 14.0199 11.7211 15.6962L12.7974 15.9845C14.2176 14.3082 15.1541 11.9953 15.8492 9.40104C15.8649 9.34236 15.8789 9.2839 15.894 9.22531C16.117 9.24589 16.3381 9.18303 16.5264 9.05492C16.6638 8.59134 16.8191 8.13323 16.9919 7.68162Z" fill="black"/>
<path d="M16.1552 10.3723C16.1244 10.3723 16.0938 10.3683 16.064 10.3603L15.6708 10.2549C15.5807 10.2307 15.5039 10.1718 15.4573 10.0911C15.4107 10.0103 15.3981 9.91435 15.4222 9.82428C15.4464 9.73422 15.5053 9.65743 15.586 9.61081C15.6668 9.5642 15.7627 9.55157 15.8528 9.57571L16.246 9.68108C16.3285 9.70306 16.4002 9.7543 16.4477 9.82523C16.4951 9.89616 16.5152 9.98194 16.5041 10.0666C16.493 10.1512 16.4514 10.2289 16.3872 10.2852C16.3231 10.3414 16.2406 10.3724 16.1552 10.3723ZM15.1141 12.2372C15.0833 12.2372 15.0526 12.2331 15.0229 12.2251L14.1886 12.0015C14.0985 11.9774 14.0217 11.9185 13.9751 11.8377C13.9285 11.757 13.9158 11.661 13.94 11.5709C13.9641 11.4808 14.023 11.4041 14.1038 11.3574C14.1845 11.3108 14.2805 11.2982 14.3706 11.3223L15.2049 11.5459C15.2495 11.5578 15.2913 11.5784 15.3279 11.6065C15.3646 11.6346 15.3953 11.6697 15.4184 11.7097C15.4415 11.7497 15.4564 11.7938 15.4625 11.8396C15.4685 11.8853 15.4654 11.9319 15.4535 11.9765C15.4335 12.0512 15.3893 12.1172 15.328 12.1644C15.2666 12.2115 15.1915 12.2371 15.1141 12.2372ZM13.9002 13.3008C13.8694 13.3008 13.8388 13.2967 13.8091 13.2887L13.6199 13.238C13.5753 13.2261 13.5335 13.2055 13.4969 13.1774C13.4602 13.1493 13.4295 13.1143 13.4064 13.0743C13.3833 13.0343 13.3683 12.9902 13.3623 12.9444C13.3563 12.8986 13.3593 12.8521 13.3713 12.8075C13.4215 12.6199 13.6145 12.5084 13.8018 12.5589L13.991 12.6095C14.0356 12.6215 14.0774 12.6421 14.114 12.6702C14.1507 12.6983 14.1814 12.7333 14.2045 12.7733C14.2276 12.8133 14.2426 12.8574 14.2486 12.9032C14.2546 12.949 14.2516 12.9955 14.2396 13.0401C14.2196 13.1148 14.1755 13.1809 14.1141 13.228C14.0528 13.2751 13.9776 13.3007 13.9002 13.3008ZM15.61 14.7627C15.5792 14.7627 15.5486 14.7586 15.5188 14.7506L14.7872 14.5545C14.7427 14.5425 14.7008 14.5219 14.6642 14.4938C14.6276 14.4657 14.5969 14.4307 14.5738 14.3907C14.5507 14.3507 14.5357 14.3065 14.5297 14.2608C14.5237 14.215 14.5267 14.1685 14.5387 14.1239C14.5506 14.0793 14.5712 14.0375 14.5993 14.0008C14.6274 13.9642 14.6625 13.9334 14.7024 13.9104C14.7424 13.8873 14.7866 13.8723 14.8324 13.8663C14.8781 13.8603 14.9247 13.8633 14.9693 13.8753L15.7008 14.0714C15.7833 14.0934 15.855 14.1446 15.9025 14.2155C15.9499 14.2865 15.97 14.3723 15.9589 14.4569C15.9478 14.5415 15.9062 14.6192 15.842 14.6755C15.7779 14.7317 15.6954 14.7627 15.61 14.7627Z" fill="#783D26"/>
<path opacity="0.2" d="M16.4105 10.117C16.3797 10.117 16.349 10.113 16.3193 10.1049L15.9261 9.99956C15.7403 9.94982 15.6296 9.76021 15.6763 9.5744C15.6155 9.58959 15.5599 9.62078 15.5152 9.66472C15.4705 9.70866 15.4384 9.76376 15.4221 9.82429C15.4102 9.86889 15.4071 9.9154 15.4132 9.96117C15.4192 10.0069 15.4342 10.0511 15.4573 10.0911C15.4803 10.1311 15.5111 10.1661 15.5477 10.1942C15.5843 10.2223 15.6261 10.2429 15.6707 10.2549L16.064 10.3603C16.0944 10.3684 16.1251 10.3724 16.1552 10.3724C16.2325 10.3723 16.3077 10.3467 16.3691 10.2996C16.4304 10.2525 16.4745 10.1864 16.4945 10.1117C16.4951 10.1095 16.4954 10.1074 16.4959 10.1052C16.468 10.1127 16.4394 10.1167 16.4105 10.117ZM15.3694 11.9818C15.3386 11.9818 15.3079 11.9777 15.2781 11.9697L14.4438 11.7462C14.3547 11.7223 14.2786 11.6643 14.2319 11.5848C14.1851 11.5052 14.1716 11.4105 14.1941 11.3211C14.1333 11.3362 14.0776 11.3674 14.0329 11.4114C13.9882 11.4553 13.9561 11.5104 13.9399 11.5709C13.928 11.6155 13.9249 11.6621 13.9309 11.7078C13.937 11.7536 13.9519 11.7977 13.975 11.8377C13.9981 11.8777 14.0288 11.9128 14.0655 11.9409C14.1021 11.969 14.1439 11.9896 14.1885 12.0015L15.0228 12.2251C15.0526 12.2331 15.0832 12.2372 15.114 12.2372C15.1914 12.2371 15.2666 12.2115 15.3279 12.1644C15.3893 12.1173 15.4334 12.0512 15.4534 11.9765C15.4539 11.9744 15.4542 11.9722 15.4548 11.97C15.4269 11.9775 15.3982 11.9814 15.3694 11.9818ZM14.1555 13.0454C14.1247 13.0454 14.0941 13.0414 14.0644 13.0334L13.8752 12.9827C13.6894 12.9329 13.5787 12.7433 13.6255 12.5574C13.5499 12.5763 13.4828 12.6198 13.4346 12.681C13.3864 12.7422 13.3599 12.8177 13.3593 12.8956C13.3586 12.9735 13.3839 13.0493 13.4311 13.1113C13.4782 13.1733 13.5447 13.2179 13.6199 13.238L13.809 13.2887C13.8388 13.2967 13.8694 13.3008 13.9002 13.3008C13.9776 13.3007 14.0528 13.2751 14.1141 13.228C14.1755 13.1808 14.2195 13.1148 14.2395 13.0401C14.2401 13.0379 14.2404 13.0358 14.2409 13.0336C14.213 13.0411 14.1844 13.0451 14.1555 13.0454ZM15.8653 14.5073C15.8345 14.5073 15.8038 14.5032 15.7741 14.4952L15.0425 14.2991C14.9534 14.2752 14.8772 14.2172 14.8305 14.1376C14.7838 14.0581 14.7703 13.9633 14.7928 13.8738C14.7172 13.8927 14.6501 13.9362 14.6019 13.9974C14.5538 14.0586 14.5273 14.1341 14.5266 14.212C14.526 14.2898 14.5512 14.3657 14.5984 14.4277C14.6455 14.4897 14.7119 14.5343 14.7872 14.5544L15.5188 14.7505C15.5485 14.7585 15.5792 14.7626 15.61 14.7626C15.6873 14.7626 15.7625 14.737 15.8239 14.6898C15.8852 14.6427 15.9293 14.5767 15.9493 14.5019C15.9499 14.4998 15.9501 14.4976 15.9507 14.4955C15.9228 14.503 15.8942 14.5069 15.8653 14.5073Z" fill="black"/>
<path d="M17.7012 2.56688C16.0727 3.78807 15.6743 6.00723 16.8113 7.52349L16.8122 7.52462C16.8467 7.5706 16.9189 7.55752 16.9361 7.50263C17.0351 7.18744 17.173 6.87024 17.3472 6.55791C17.3532 6.54722 17.3564 6.53516 17.3563 6.52291C17.3563 6.51065 17.353 6.49862 17.347 6.48798L17.1788 6.19519C17.0887 6.03826 17.2023 5.84265 17.3832 5.84307L17.782 5.84401C17.804 5.84405 17.8246 5.83388 17.8381 5.81644C18.1091 5.4653 18.4276 5.1286 18.7899 4.8174C18.8078 4.80198 18.8171 4.77863 18.8142 4.7551L18.7619 4.32062C18.7403 4.14094 18.9212 4.00524 19.0876 4.07635L19.49 4.24829C19.5118 4.25762 19.5368 4.25532 19.5566 4.24238C19.9569 3.98176 20.3694 3.7704 20.7824 3.60858C20.8029 3.60057 20.8184 3.5836 20.8245 3.56246L20.9353 3.1794C20.9856 3.00558 21.2052 2.95135 21.3306 3.08185L21.5645 3.32527C21.5818 3.34327 21.6073 3.35068 21.6316 3.3451C21.9802 3.26532 22.3234 3.22182 22.6537 3.21512C22.7111 3.21394 22.744 3.14827 22.7095 3.10224L22.7087 3.10112C21.5717 1.5849 19.3298 1.34569 17.7012 2.56688Z" fill="#59CC56"/>
<path opacity="0.2" d="M22.7096 3.10228L22.7087 3.10116C22.5249 2.85613 22.3069 2.63868 22.0614 2.45541C21.7899 2.47209 21.511 2.51255 21.2283 2.57719C21.2164 2.57995 21.2039 2.57958 21.1922 2.5761C21.1804 2.57263 21.1698 2.56617 21.1612 2.55736L20.9273 2.31394C20.8019 2.18348 20.5823 2.23767 20.532 2.41148L20.4212 2.79455C20.4182 2.80495 20.4129 2.81453 20.4055 2.82253C20.3982 2.83053 20.3892 2.83674 20.3791 2.84067C19.9661 3.00248 19.5536 3.21389 19.1534 3.47447C19.1436 3.48086 19.1324 3.48474 19.1208 3.48577C19.1092 3.4868 19.0975 3.48495 19.0867 3.48037L18.6843 3.30844C18.5179 3.23733 18.337 3.37303 18.3586 3.5527L18.4109 3.98719C18.4137 4.01072 18.4045 4.03402 18.3866 4.04948C18.0243 4.36069 17.7058 4.69744 17.4348 5.04853C17.4282 5.05713 17.4197 5.06409 17.4099 5.06887C17.4002 5.07365 17.3895 5.07612 17.3787 5.07609L16.9799 5.07516C16.799 5.07473 16.6854 5.27034 16.7755 5.42728L16.9437 5.72006C16.9561 5.74167 16.9561 5.7682 16.9439 5.79C16.7697 6.10233 16.6318 6.41953 16.5329 6.73472C16.5157 6.78956 16.4434 6.80269 16.4089 6.7567L16.408 6.75558C16.3919 6.73402 16.3771 6.7118 16.3616 6.68995C16.4695 6.98851 16.6211 7.26941 16.8114 7.52348L16.8123 7.52461C16.8468 7.57059 16.919 7.55752 16.9363 7.50262C17.0352 7.18744 17.1731 6.87023 17.3474 6.55791C17.3533 6.54722 17.3565 6.53516 17.3564 6.5229C17.3564 6.51064 17.3532 6.49861 17.3471 6.48797L17.1789 6.19519C17.0888 6.03825 17.2024 5.84264 17.3833 5.84306L17.7821 5.844C17.8041 5.84405 17.8247 5.83387 17.8382 5.81644C18.1092 5.4653 18.4277 5.12859 18.79 4.81739C18.8079 4.80197 18.8172 4.77862 18.8143 4.75509L18.762 4.32061C18.7404 4.14094 18.9213 4.00523 19.0877 4.07634L19.4902 4.24828C19.5119 4.25761 19.5369 4.25531 19.5568 4.24237C19.957 3.98175 20.3695 3.77039 20.7825 3.60858C20.803 3.60056 20.8185 3.58359 20.8246 3.56241L20.9354 3.17934C20.9857 3.00553 21.2054 2.9513 21.3307 3.0818L21.5647 3.32522C21.5819 3.34322 21.6074 3.35062 21.6317 3.34505C21.9803 3.26527 22.3235 3.22177 22.6538 3.21506C22.7112 3.21398 22.744 3.14831 22.7096 3.10228Z" fill="black"/>
<path d="M17.7004 2.24566C18.284 3.94399 17.4752 5.76133 15.894 6.30471L15.8928 6.30513C15.8448 6.32158 15.7986 6.27625 15.8132 6.22765C15.8971 5.94855 15.9536 5.64869 15.9812 5.33435C15.9831 5.31241 15.9962 5.29305 16.016 5.28344L16.2838 5.15304C16.4273 5.08315 16.4414 4.88407 16.3091 4.79472L16.0176 4.5978C16.0096 4.59244 16.0031 4.58534 15.9983 4.57703C15.9936 4.56873 15.9908 4.55944 15.9902 4.5499C15.9664 4.15929 15.9008 3.75569 15.7905 3.349C15.7878 3.33908 15.7876 3.32863 15.7899 3.3186C15.7921 3.30857 15.7969 3.29926 15.8036 3.29149L16.0571 3.00025C16.1619 2.87983 16.097 2.69111 15.9404 2.66055L15.5614 2.58668C15.5513 2.58469 15.5419 2.58025 15.5339 2.57374C15.5259 2.56723 15.5197 2.55886 15.5157 2.54936C15.3527 2.16082 15.1563 1.80213 14.9351 1.4794C14.9297 1.47152 14.9261 1.4625 14.9248 1.45304C14.9234 1.44358 14.9242 1.43393 14.9272 1.42483L15.0361 1.09033C15.0855 0.938552 14.9521 0.790145 14.7959 0.823239L14.5045 0.884973C14.4939 0.887188 14.4829 0.886625 14.4726 0.88334C14.4623 0.880054 14.4531 0.874157 14.4457 0.866223C14.2307 0.63527 14.0018 0.433473 13.7641 0.264911C13.7227 0.235567 13.7313 0.171395 13.7792 0.154848L13.7804 0.154427C15.3617 -0.388948 17.1167 0.547333 17.7004 2.24566Z" fill="#59CC56"/>
<path opacity="0.2" d="M16.9055 5.12566C16.9074 5.10377 16.9206 5.08436 16.9403 5.07475L17.2081 4.94434C17.3516 4.87445 17.3656 4.67537 17.2333 4.58603L16.9418 4.38911C16.9339 4.38375 16.9273 4.37665 16.9226 4.36834C16.9179 4.36003 16.9151 4.35075 16.9145 4.3412C16.8906 3.95059 16.825 3.547 16.7148 3.14031C16.7121 3.13039 16.7118 3.11994 16.7141 3.10991C16.7164 3.09988 16.7211 3.09056 16.7279 3.0828L16.9813 2.79156C17.0862 2.67114 17.0213 2.48242 16.8646 2.45186L16.4857 2.37794C16.4756 2.37595 16.4661 2.37151 16.4582 2.365C16.4502 2.35849 16.444 2.35012 16.44 2.34062C16.277 1.95208 16.0806 1.59339 15.8594 1.27066C15.8539 1.26278 15.8504 1.25376 15.849 1.2443C15.8477 1.23484 15.8485 1.22519 15.8514 1.21609L15.9604 0.881593C16.0098 0.729812 15.8764 0.581406 15.7202 0.6145L15.4288 0.676234C15.4182 0.678449 15.4072 0.677886 15.3969 0.6746C15.3866 0.671314 15.3773 0.665418 15.37 0.657484C15.155 0.426531 14.9261 0.224734 14.6883 0.0561714C14.6795 0.049968 14.6725 0.0415893 14.668 0.0318587C14.6634 0.022128 14.6615 0.0113802 14.6623 0.000671387C14.3621 0.00485807 14.0643 0.0567557 13.7803 0.154421L13.7792 0.154843C13.7312 0.171343 13.7226 0.235562 13.764 0.264906C14.0017 0.433468 14.2307 0.635218 14.4456 0.866218C14.4606 0.882343 14.4829 0.889515 14.5044 0.884968L14.7958 0.823234C14.952 0.79014 15.0854 0.9385 15.036 1.09033L14.9271 1.42483C14.9211 1.4433 14.924 1.46341 14.935 1.47939C15.1563 1.80217 15.3526 2.16081 15.5157 2.54941C15.5238 2.56867 15.5408 2.58273 15.5614 2.58672L15.9403 2.66059C16.097 2.69116 16.1618 2.87987 16.057 3.0003L15.8036 3.29153C15.7968 3.2993 15.7921 3.30862 15.7898 3.31865C15.7875 3.32868 15.7877 3.33912 15.7904 3.34905C15.9007 3.75573 15.9663 4.15933 15.9902 4.54994C15.9913 4.56934 16.0014 4.58697 16.0175 4.59784L16.309 4.79477C16.4413 4.88411 16.4273 5.08319 16.2838 5.15308L16.016 5.28348C16.0063 5.28824 15.9979 5.29543 15.9918 5.30435C15.9857 5.31327 15.982 5.32362 15.9811 5.33439C15.9536 5.64869 15.897 5.94859 15.8131 6.22769C15.7985 6.27625 15.8447 6.32162 15.8927 6.30517L15.8938 6.30475C16.2242 6.19127 16.5308 6.01771 16.7981 5.79283C16.8503 5.57338 16.8862 5.35039 16.9055 5.12566Z" fill="black"/>
<path d="M19.9593 3.39361C17.9243 3.34903 16.2408 4.84889 16.1993 6.74367L16.1993 6.74508C16.1981 6.80254 16.263 6.83686 16.3104 6.80433C16.5828 6.61748 16.8871 6.45304 17.217 6.3149C17.24 6.30529 17.2564 6.28439 17.26 6.25973L17.3085 5.92561C17.3344 5.74655 17.5445 5.66273 17.6866 5.77476L17.9998 6.02165C18.0171 6.03529 18.0396 6.04003 18.0609 6.03464C18.4909 5.92575 18.9493 5.8574 19.4265 5.83622C19.4381 5.83572 19.4495 5.83236 19.4595 5.82643C19.4696 5.8205 19.478 5.81219 19.4841 5.80223L19.7111 5.42812C19.805 5.27344 20.0311 5.2784 20.1182 5.43703L20.3287 5.8207C20.34 5.84147 20.3611 5.85511 20.3847 5.85717C20.8605 5.89922 21.3155 5.98758 21.7402 6.11522C21.7613 6.12154 21.784 6.1178 21.8019 6.10495L22.1255 5.87203C22.2724 5.76633 22.4786 5.85923 22.4967 6.03928L22.5305 6.37523C22.533 6.40003 22.5485 6.42164 22.571 6.43223C22.8945 6.58472 23.1914 6.76228 23.4553 6.96089C23.5013 6.99548 23.5676 6.96403 23.5689 6.90656L23.5689 6.90515C23.6104 5.01037 21.9943 3.43819 19.9593 3.39361Z" fill="#59CC56"/>
<path opacity="0.2" d="M23.5688 6.90516C23.5754 6.59683 23.5376 6.28915 23.4565 5.99161C23.267 5.84202 23.0674 5.70574 22.859 5.58375C22.8484 5.57758 22.8396 5.56877 22.8334 5.55818C22.8273 5.54759 22.8239 5.53559 22.8238 5.52333L22.8201 5.18574C22.8181 5.0048 22.6211 4.89384 22.4654 4.986L22.1222 5.18911C22.1129 5.19463 22.1024 5.19793 22.0916 5.19876C22.0808 5.19958 22.0699 5.1979 22.0598 5.19384C21.6481 5.02875 21.2029 4.90013 20.7328 4.8157C20.7213 4.81366 20.7105 4.80882 20.7013 4.80161C20.6922 4.7944 20.6849 4.78504 20.6802 4.77436L20.5049 4.37339C20.4324 4.20759 20.2076 4.18247 20.1003 4.32816L19.8407 4.68047C19.8266 4.69955 19.8039 4.71024 19.7803 4.70916C19.3031 4.68759 18.8405 4.71469 18.4025 4.78477C18.3918 4.78649 18.3808 4.78573 18.3704 4.78254C18.3601 4.77936 18.3506 4.77383 18.3427 4.76639L18.0529 4.4925C17.9213 4.36823 17.7046 4.43292 17.6627 4.60894L17.5846 4.93739C17.5788 4.96163 17.5606 4.98098 17.5369 4.98853C17.196 5.09667 16.8782 5.23322 16.5902 5.39499C16.5806 5.4004 16.5698 5.40346 16.5588 5.4039C16.5478 5.40434 16.5368 5.40215 16.5268 5.39752C16.3261 5.80842 16.2097 6.26325 16.1992 6.74367L16.1991 6.74508C16.1979 6.80255 16.2628 6.83686 16.3102 6.80433C16.5826 6.61744 16.8869 6.45305 17.2168 6.31491C17.2398 6.30525 17.2562 6.28439 17.2598 6.25973L17.3083 5.92561C17.3342 5.74655 17.5443 5.66273 17.6865 5.77477L17.9996 6.02166C18.0169 6.0353 18.0394 6.04003 18.0607 6.03464C18.4907 5.92575 18.9491 5.85741 19.4263 5.83622C19.4379 5.83572 19.4493 5.83236 19.4593 5.82643C19.4694 5.82051 19.4778 5.8122 19.4839 5.80223L19.7109 5.42813C19.8048 5.27344 20.031 5.27841 20.118 5.43703L20.3285 5.8207C20.3399 5.84147 20.3609 5.85511 20.3845 5.85717C20.8603 5.89922 21.3153 5.98758 21.7401 6.11522C21.7612 6.12155 21.7838 6.1178 21.8017 6.10495L22.1253 5.87203C22.2722 5.76633 22.4784 5.85924 22.4965 6.03928L22.5303 6.37523C22.5328 6.40003 22.5483 6.42159 22.5708 6.43223C22.8944 6.58472 23.1912 6.76228 23.4551 6.96089C23.5011 6.99548 23.5674 6.96403 23.5687 6.90656C23.5688 6.90609 23.5688 6.90563 23.5688 6.90516Z" fill="black"/>
<path d="M15.6425 2.10285C17.3339 3.23535 17.8502 5.43004 16.7958 7.0049L16.795 7.00607C16.763 7.05383 16.6902 7.0446 16.6701 6.99074C16.5544 6.68132 16.3998 6.3719 16.2091 6.06932C16.2025 6.05897 16.1988 6.04709 16.1981 6.03485C16.1975 6.02261 16.2001 6.01042 16.2056 5.99947L16.3579 5.69811C16.4395 5.53663 16.3156 5.34735 16.135 5.35743L15.7368 5.37965C15.726 5.38025 15.7152 5.37835 15.7052 5.3741C15.6952 5.36985 15.6864 5.36336 15.6793 5.35513C15.3899 5.01899 15.0539 4.69972 14.6755 4.4083C14.6663 4.40121 14.6589 4.39194 14.6541 4.38131C14.6493 4.37069 14.6472 4.35905 14.6479 4.34741L14.6769 3.91077C14.6889 3.73021 14.501 3.6044 14.3386 3.68427L13.946 3.87744C13.9355 3.88258 13.9239 3.88505 13.9122 3.88464C13.9006 3.88423 13.8892 3.88095 13.8791 3.8751C13.4655 3.63622 13.0424 3.44718 12.6213 3.30763C12.611 3.30424 12.6016 3.29852 12.5939 3.29092C12.5862 3.28332 12.5803 3.27404 12.5767 3.2638L12.4456 2.88721C12.3861 2.7163 12.164 2.67393 12.0457 2.8109L11.8251 3.06646C11.8087 3.08535 11.7837 3.09411 11.7591 3.08985C11.4067 3.02882 11.0618 3.00369 10.7316 3.01461C10.6741 3.01654 10.6379 2.95269 10.6698 2.90488L10.6706 2.90371C11.7251 1.32894 13.951 0.970349 15.6425 2.10285Z" fill="#59CC56"/>
<path opacity="0.2" d="M16.8125 5.05227C16.8054 5.04232 16.8009 5.03069 16.7996 5.01851C16.7983 5.00633 16.8001 4.99401 16.805 4.98276L16.9394 4.67305C17.0115 4.50707 16.8768 4.32533 16.697 4.34591L16.3009 4.39133C16.2901 4.39256 16.2792 4.3913 16.269 4.38764C16.2588 4.38398 16.2496 4.37803 16.2421 4.37024C15.9335 4.05154 15.5795 3.75243 15.1847 3.48355C15.1751 3.477 15.1672 3.46817 15.1618 3.45785C15.1563 3.44752 15.1535 3.43602 15.1536 3.42435L15.1571 2.98677C15.1586 2.80583 14.9636 2.69118 14.8062 2.78038L14.4255 2.9961C14.4048 3.00777 14.3798 3.00829 14.3586 2.99765C13.9318 2.78329 13.4983 2.61927 13.0699 2.50452C13.0594 2.50174 13.0497 2.49657 13.0415 2.48944C13.0334 2.4823 13.027 2.47338 13.0228 2.46336L12.87 2.09507C12.8006 1.92796 12.5763 1.89857 12.4663 2.04219L12.2609 2.31018C12.2457 2.32996 12.2213 2.34018 12.1965 2.33736C11.843 2.29719 11.499 2.29213 11.1716 2.3218C10.982 2.4951 10.8138 2.69051 10.6707 2.90385L10.6699 2.90502C10.6379 2.95283 10.6742 3.01663 10.7317 3.01476C11.0619 3.00379 11.4068 3.02896 11.7592 3.08999C11.7713 3.0921 11.7837 3.09106 11.7952 3.08696C11.8068 3.08286 11.8171 3.07585 11.8251 3.0666L12.0458 2.81104C12.164 2.67407 12.3862 2.71649 12.4457 2.88735L12.5768 3.26394C12.584 3.28476 12.6005 3.30083 12.6214 3.30777C13.0425 3.44732 13.4656 3.63636 13.8792 3.87519C13.8997 3.88705 13.9247 3.88799 13.946 3.87754L14.3387 3.68436C14.5011 3.60449 14.689 3.73035 14.677 3.91086L14.648 4.34751C14.6464 4.37113 14.6568 4.39396 14.6756 4.4084C15.054 4.69982 15.39 5.01904 15.6794 5.35522C15.6937 5.37191 15.7149 5.38096 15.7369 5.37974L16.135 5.35752C16.3157 5.34744 16.4395 5.53672 16.3579 5.69821L16.2057 5.99957C16.1944 6.02183 16.1958 6.04832 16.2091 6.06941C16.3998 6.37199 16.5545 6.68136 16.6701 6.99083C16.6902 7.04469 16.7631 7.05393 16.7951 7.00616L16.7959 7.00499C17.0385 6.6426 17.197 6.24721 17.2781 5.83968C17.1521 5.57324 16.9963 5.30929 16.8125 5.05227Z" fill="black"/>
<path d="M20.7084 5.5636C19.1412 4.29375 16.9123 4.44727 15.73 5.90644C15.7297 5.90681 15.7294 5.90717 15.7291 5.90752C15.6932 5.95182 15.7233 6.01805 15.7802 6.02133C16.107 6.04027 16.4452 6.0961 16.7874 6.18807C16.7991 6.19125 16.8115 6.19134 16.8232 6.18833C16.835 6.18532 16.8458 6.17932 16.8545 6.17091L17.0953 5.93855C17.2243 5.81405 17.4397 5.87588 17.4831 6.04988L17.5785 6.43332C17.5838 6.4545 17.5986 6.47185 17.6186 6.48057C18.0215 6.65616 18.4221 6.88083 18.8087 7.15379C18.8182 7.16047 18.8291 7.16473 18.8406 7.16618C18.852 7.16764 18.8637 7.16625 18.8745 7.16213L19.2794 7.00683C19.4468 6.94261 19.6209 7.08371 19.5928 7.2608L19.5248 7.6891C19.5231 7.70052 19.5241 7.7122 19.5279 7.72312C19.5317 7.73403 19.5381 7.74384 19.5466 7.75168C19.8938 8.07333 20.1967 8.41861 20.452 8.77641C20.4646 8.79418 20.4847 8.805 20.5065 8.80575L20.9014 8.81968C21.0806 8.826 21.1857 9.02391 21.0907 9.17593L20.9133 9.45961C20.9069 9.46993 20.9032 9.48172 20.9027 9.49385C20.9022 9.50599 20.9049 9.51804 20.9104 9.52885C21.0713 9.8446 21.1961 10.1638 21.2824 10.4796C21.2974 10.5346 21.3684 10.5502 21.4043 10.506C21.4046 10.5056 21.4049 10.5052 21.4052 10.5049C22.5876 9.04571 22.2756 6.83344 20.7084 5.5636Z" fill="#59CC56"/>
<path d="M13.4228 3.46331C15.4371 3.35756 17.1498 4.79222 17.2483 6.66764L17.2484 6.66905C17.2513 6.72596 17.1881 6.76186 17.1401 6.73111C16.8646 6.55425 16.5583 6.40064 16.2274 6.2738C16.216 6.26948 16.206 6.26229 16.1982 6.25294C16.1905 6.2436 16.1853 6.23241 16.1831 6.22046L16.125 5.89097C16.0938 5.71439 15.8832 5.63775 15.7459 5.75302L15.4432 6.00703C15.435 6.01394 15.4253 6.01885 15.4148 6.02141C15.4044 6.02396 15.3935 6.02408 15.383 6.02175C14.9538 5.92688 14.4977 5.87311 14.0245 5.86655C14.0129 5.86641 14.0016 5.86343 13.9914 5.85786C13.9813 5.85229 13.9727 5.84431 13.9664 5.83463L13.7302 5.47097C13.6325 5.3206 13.4087 5.33236 13.3273 5.49211L13.1305 5.8785C13.1252 5.8888 13.1175 5.89763 13.108 5.90423C13.0985 5.91083 13.0875 5.91498 13.0761 5.91633C12.6061 5.97239 12.1581 6.07364 11.7412 6.21291C11.7311 6.21633 11.7202 6.21735 11.7096 6.21592C11.699 6.21448 11.6888 6.21061 11.6799 6.20461L11.3523 5.98369C11.2036 5.88342 11.0022 5.98172 10.9897 6.1606L10.9664 6.49435C10.9655 6.50646 10.9615 6.51814 10.9548 6.52826C10.9481 6.53837 10.9388 6.54657 10.928 6.55205C10.6122 6.71283 10.3236 6.89771 10.0681 7.10246C10.0237 7.13808 9.95699 7.10897 9.95399 7.05206L9.9539 7.05066C9.85542 5.17514 11.4085 3.56906 13.4228 3.46331Z" fill="#59CC56"/>
<path opacity="0.2" d="M21.7248 9.94117C21.6385 9.62537 21.5137 9.30615 21.3528 8.9904C21.3473 8.97959 21.3446 8.96754 21.3451 8.95541C21.3456 8.94328 21.3493 8.93148 21.3557 8.92117L21.5331 8.63748C21.6281 8.48547 21.5229 8.28751 21.3438 8.28123L20.9489 8.26731C20.9382 8.26694 20.9277 8.26411 20.9182 8.25902C20.9088 8.25393 20.9006 8.24672 20.8944 8.23796C20.6391 7.88017 20.3362 7.53493 19.989 7.21328C19.9806 7.20543 19.9741 7.19562 19.9703 7.18471C19.9665 7.1738 19.9655 7.16212 19.9672 7.1507L20.0352 6.7224C20.0633 6.54531 19.8892 6.40421 19.7218 6.46843L19.3169 6.62373C19.3061 6.62785 19.2944 6.62924 19.283 6.62778C19.2715 6.62633 19.2606 6.62207 19.2511 6.61539C18.8645 6.34243 18.4639 6.11781 18.061 5.94217C18.0511 5.93789 18.0424 5.93141 18.0355 5.92321C18.0285 5.91502 18.0235 5.90534 18.0209 5.89492L17.9255 5.51148C17.8822 5.33748 17.6667 5.27565 17.5377 5.40015L17.2969 5.63251C17.2882 5.64093 17.2774 5.64694 17.2656 5.64994C17.2538 5.65295 17.2415 5.65286 17.2297 5.64967C16.8875 5.5577 16.5493 5.50187 16.2225 5.48293C16.2132 5.48242 16.2041 5.48003 16.1957 5.47589C16.1873 5.47176 16.1799 5.46598 16.1738 5.45889L16.172 5.46048L16.1148 5.13653C16.0837 4.95995 15.873 4.88331 15.7357 4.99857L15.433 5.25259C15.4248 5.25949 15.4151 5.26441 15.4046 5.26696C15.3942 5.26951 15.3833 5.26963 15.3728 5.26731C14.9437 5.17243 14.4876 5.11867 14.0143 5.11211C14.0027 5.11197 13.9914 5.10898 13.9813 5.10342C13.9711 5.09785 13.9625 5.08987 13.9562 5.08018L13.72 4.71653C13.6223 4.56615 13.3985 4.57792 13.3171 4.73767L13.1203 5.12406C13.115 5.13435 13.1073 5.14319 13.0978 5.14979C13.0883 5.15639 13.0774 5.16054 13.0659 5.16189C12.5959 5.21795 12.148 5.3192 11.7311 5.45846C11.7209 5.46188 11.7101 5.46291 11.6994 5.46147C11.6888 5.46003 11.6786 5.45616 11.6697 5.45017L11.3421 5.22925C11.1935 5.12898 10.992 5.22728 10.9795 5.40615L10.9562 5.7399C10.9554 5.75202 10.9514 5.7637 10.9446 5.77381C10.9379 5.78393 10.9287 5.79212 10.9178 5.79761C10.602 5.95839 10.3134 6.14326 10.058 6.34801C10.0489 6.35527 10.0382 6.36014 10.0268 6.36218C10.0154 6.36422 10.0037 6.36336 9.99267 6.35968C9.95475 6.58794 9.94177 6.81965 9.95395 7.05071L9.95404 7.05212C9.95704 7.10903 10.0237 7.13814 10.0682 7.10251C10.3236 6.89781 10.6122 6.71293 10.9281 6.55211C10.9389 6.54662 10.9481 6.53842 10.9549 6.52831C10.9616 6.5182 10.9656 6.50652 10.9665 6.4944L10.9897 6.16065C11.0022 5.98178 11.2037 5.88353 11.3523 5.98375L11.6799 6.20467C11.698 6.21686 11.7206 6.2199 11.7413 6.21296C12.1582 6.0737 12.6061 5.97245 13.0761 5.91639C13.0876 5.91503 13.0986 5.91087 13.108 5.90428C13.1175 5.89768 13.1253 5.88885 13.1305 5.87856L13.3274 5.49217C13.4087 5.33237 13.6326 5.32065 13.7302 5.47103L13.9664 5.83468C13.9728 5.84437 13.9814 5.85235 13.9915 5.85792C14.0016 5.86348 14.013 5.86647 14.0245 5.86661C14.4978 5.87317 14.9539 5.92693 15.3831 6.02181C15.4043 6.0265 15.4265 6.02115 15.4432 6.00709L15.7459 5.75307C15.7691 5.73338 15.7959 5.71849 15.8249 5.70928C15.8539 5.70006 15.8844 5.69671 15.9147 5.6994C15.8498 5.766 15.7878 5.83548 15.7291 5.90762C15.6932 5.95192 15.7233 6.01815 15.7802 6.02143C15.9035 6.02856 16.0284 6.04098 16.1546 6.05861L16.1832 6.22051C16.1875 6.24484 16.2043 6.26504 16.2274 6.27386C16.5583 6.4007 16.8647 6.55436 17.1402 6.73117C17.1881 6.76196 17.2514 6.72601 17.2484 6.66911L17.2483 6.6677C17.2361 6.43486 17.1984 6.20406 17.1359 5.97943C17.1339 5.9784 17.1319 5.97793 17.1299 5.97667C17.1151 5.96715 17.0999 5.95801 17.0849 5.94864L17.0953 5.93861C17.2243 5.81411 17.4397 5.87593 17.4831 6.04993L17.5785 6.43337C17.5838 6.45456 17.5986 6.4719 17.6186 6.48062C18.0215 6.65621 18.4221 6.88089 18.8087 7.15384C18.8182 7.16052 18.8291 7.16478 18.8405 7.16624C18.852 7.16769 18.8637 7.1663 18.8744 7.16218L19.2794 7.00689C19.4468 6.94267 19.6209 7.08376 19.5928 7.26086L19.5248 7.68915C19.5211 7.71236 19.5294 7.73579 19.5466 7.75173C19.8938 8.07339 20.1967 8.41867 20.452 8.77646C20.4646 8.79423 20.4847 8.80506 20.5065 8.80581L20.9014 8.81973C21.0806 8.82606 21.1858 9.02396 21.0907 9.17598L20.9133 9.45967C20.9069 9.46998 20.9033 9.48178 20.9028 9.49391C20.9023 9.50604 20.9049 9.5181 20.9105 9.5289C21.0714 9.84465 21.1961 10.1639 21.2824 10.4797C21.2974 10.5347 21.3685 10.5503 21.4044 10.506C21.537 10.3421 21.653 10.1654 21.7508 9.97862C21.7381 9.96945 21.729 9.95624 21.7248 9.94117Z" fill="black"/>
<path d="M16.1999 8.66068C16.7293 8.66068 17.1584 8.23153 17.1584 7.70214C17.1584 7.17275 16.7293 6.74359 16.1999 6.74359C15.6705 6.74359 15.2413 7.17275 15.2413 7.70214C15.2413 8.23153 15.6705 8.66068 16.1999 8.66068Z" fill="#E87941"/>
<path opacity="0.2" d="M16.5241 6.80089C16.4991 6.7915 16.4737 6.7833 16.4479 6.77633C16.4167 6.768 16.385 6.76126 16.3531 6.75612C16.3452 6.75486 16.3374 6.75439 16.3296 6.75331C16.3059 6.74987 16.2822 6.74731 16.2583 6.74562C16.2567 6.74553 16.2551 6.7452 16.2534 6.74511L16.2533 6.74553C16.1269 6.7384 16.0003 6.75655 15.8809 6.79892L15.8813 6.79836C15.8548 6.80789 15.8287 6.81857 15.8031 6.83037C15.783 6.83951 15.7632 6.84936 15.7438 6.85986C15.7421 6.86079 15.7403 6.86164 15.7386 6.86262C15.6958 6.88617 15.6548 6.91294 15.616 6.94269L15.6122 6.94564C15.5936 6.96008 15.5755 6.97517 15.558 6.99092L15.5558 6.99284C15.4193 7.11617 15.3214 7.2764 15.2739 7.45419C15.1369 7.96554 15.4404 8.49115 15.9517 8.62817C16.3273 8.72881 16.7099 8.59123 16.9413 8.30881C16.759 8.37343 16.5614 8.38111 16.3747 8.33084C15.9584 8.21928 15.6801 7.85023 15.6648 7.44101C15.8762 7.4412 16.0823 7.37459 16.2536 7.2507C16.2545 7.2544 16.2551 7.25811 16.2561 7.26181C16.3629 7.67609 16.7019 7.96822 17.0978 8.0367C17.1083 8.00858 17.1178 7.97994 17.1257 7.9504C17.2558 7.46497 16.9887 6.96748 16.5241 6.80089Z" fill="black"/>
<path d="M15.7175 7.17412C16.2721 7.17412 16.7217 6.72452 16.7217 6.16991C16.7217 5.61531 16.2721 5.16571 15.7175 5.16571C15.1629 5.16571 14.7133 5.61531 14.7133 6.16991C14.7133 6.72452 15.1629 7.17412 15.7175 7.17412Z" fill="#E87941"/>
<path opacity="0.2" d="M15.9368 6.72998C15.4011 6.58645 15.0831 6.03577 15.2267 5.50008C15.2512 5.40912 15.2885 5.32208 15.3373 5.24152C15.0573 5.35641 14.8319 5.59505 14.7475 5.90995C14.6039 6.44569 14.9218 6.99633 15.4576 7.13986C15.8999 7.25836 16.3517 7.06181 16.5769 6.68831C16.3806 6.76889 16.1576 6.78919 15.9368 6.72998Z" fill="black"/>
<path d="M17.3838 7.85273C17.966 7.85273 18.438 7.38076 18.438 6.79856C18.438 6.21635 17.966 5.74438 17.3838 5.74438C16.8016 5.74438 16.3297 6.21635 16.3297 6.79856C16.3297 7.38076 16.8016 7.85273 17.3838 7.85273Z" fill="#E87941"/>
<path opacity="0.2" d="M17.98 7.37503C17.4163 7.52044 16.8414 7.1813 16.696 6.61753C16.638 6.39244 16.6582 6.16603 16.7381 5.96545C16.4158 6.21558 16.2548 6.64167 16.3631 7.06181C16.5085 7.62558 17.0834 7.96472 17.6471 7.81931C17.9858 7.73199 18.2423 7.48917 18.3625 7.18734C18.2492 7.2754 18.119 7.33927 17.98 7.37503Z" fill="black"/>
<path d="M17.5982 19.1921C17.61 19.0983 17.6162 19.0035 17.6162 18.9078C17.6162 17.013 15.2712 15.477 12.3785 15.477C9.48582 15.477 7.14081 17.013 7.14081 18.9078C7.14081 19.0035 7.14709 19.0983 7.15886 19.1921H17.5982Z" fill="#FAE8B4"/>
<path d="M7.25034 3.91148C7.25034 4.24851 6.63933 4.48481 6.54056 4.78893C6.43823 5.10412 6.79008 5.65378 6.59916 5.91614C6.40631 6.18112 5.77355 6.01533 5.50861 6.20817C5.24625 6.39909 5.2095 7.05309 4.89431 7.15542C4.59019 7.25418 4.17736 6.74986 3.84037 6.74986C3.50334 6.74986 3.09052 7.25414 2.78639 7.15537C2.4712 7.05304 2.43445 6.39904 2.17209 6.20808C1.90711 6.01523 1.27439 6.18103 1.08155 5.91604C0.890625 5.65368 1.24247 5.10403 1.14014 4.78889C1.04137 4.48476 0.430359 4.24847 0.430359 3.91148C0.430359 3.57445 1.04137 3.33815 1.14014 3.03403C1.24247 2.71884 0.890625 2.16918 1.08155 1.90683C1.27439 1.64184 1.90716 1.80764 2.17209 1.61479C2.43445 1.42387 2.4712 0.769872 2.78639 0.667544C3.09052 0.568778 3.50334 1.07311 3.84033 1.07311C4.17736 1.07311 4.59019 0.568825 4.89431 0.667591C5.2095 0.769919 5.24625 1.42392 5.50861 1.61489C5.77359 1.80773 6.40631 1.64193 6.59916 1.90692C6.79008 2.16928 6.43823 2.71893 6.54056 3.03408C6.63933 3.33815 7.25034 3.57445 7.25034 3.91148Z" fill="#FFD042"/>
<path d="M3.8403 5.51751C4.72726 5.51751 5.44628 4.79849 5.44628 3.91153C5.44628 3.02457 4.72726 2.30554 3.8403 2.30554C2.95334 2.30554 2.23431 3.02457 2.23431 3.91153C2.23431 4.79849 2.95334 5.51751 3.8403 5.51751Z" fill="#E87941"/>
<path opacity="0.2" d="M4.68227 5.00821C3.7953 5.00821 3.07628 4.28919 3.07628 3.40222C3.07628 2.99901 3.22525 2.6308 3.47064 2.34875C2.76194 2.51577 2.23431 3.15182 2.23431 3.91147C2.23431 4.79844 2.95333 5.51746 3.8403 5.51746C4.324 5.51746 4.75745 5.30329 5.05188 4.96494C4.93077 4.99364 4.80673 5.00816 4.68227 5.00821Z" fill="black"/>
<path d="M17.6162 18.9077C17.6162 18.3784 17.433 17.8771 17.1062 17.4295C16.3972 17.5928 16.2591 18.1528 15.315 18.1528C14.2098 18.1528 14.2098 17.3849 13.1046 17.3849C11.9994 17.3849 11.9994 18.1528 10.8942 18.1528C9.78947 18.1528 9.78947 17.3849 8.68425 17.3849C7.99228 17.3849 7.73353 17.6859 7.36556 17.911C7.21954 18.2264 7.14075 18.561 7.14075 18.9077C7.14075 19.0034 7.14703 19.0982 7.15879 19.192H17.5981C17.6099 19.0983 17.6162 19.0035 17.6162 18.9077Z" fill="#FFD042"/>
<path d="M23.0116 19.4941C23.0116 19.1546 22.7774 18.8287 22.3477 18.5264C21.8161 18.1523 21.302 18.1528 20.6784 18.1528C19.5732 18.1528 19.5732 17.385 18.468 17.385C17.3628 17.385 17.3628 18.1528 16.2576 18.1528C15.1524 18.1528 15.1524 17.385 14.0472 17.385C12.942 17.385 12.942 18.1528 11.8368 18.1528C10.7321 18.1528 10.7321 17.385 9.62688 17.385C8.5217 17.385 8.5217 18.1528 7.41649 18.1528C6.31131 18.1528 6.31131 17.385 5.2061 17.385C4.08925 17.385 3.88596 18.3106 2.69842 18.1318C2.16292 18.0512 1.61524 18.1782 1.16444 18.4782C0.689971 18.794 0.430237 19.1364 0.430237 19.4941C0.430237 20.3506 1.92016 20.9327 4.27947 21.2859C3.27883 21.5649 2.69256 21.9029 2.69256 22.2672C2.69256 23.2242 6.73469 24 11.7209 24C16.7071 24 20.7492 23.2242 20.7492 22.2672C20.7492 21.9029 20.163 21.5649 19.1624 21.286C21.5218 20.9327 23.0116 20.3506 23.0116 19.4941Z" fill="#3FC2C4"/>
<path opacity="0.2" d="M4.6147 20.3715C2.43792 20.0455 1.00223 19.5246 0.792984 18.7733C0.5565 19.0037 0.430359 19.2452 0.430359 19.4942C0.430359 20.2026 1.45031 20.7231 3.13772 21.0818C3.35114 20.8212 3.86723 20.5799 4.6147 20.3715ZM20.5754 21.9274C19.3402 22.6019 15.9927 23.0855 12.0561 23.0855C7.67587 23.0855 4.02469 22.4868 3.2018 21.6925C2.87227 21.8724 2.69269 22.0658 2.69269 22.2672C2.69269 23.2242 6.73481 24 11.721 24C16.7072 24 20.7493 23.2242 20.7493 22.2672C20.7494 22.1509 20.6893 22.0373 20.5754 21.9274ZM19.4977 20.3715C20.1225 20.5457 20.5857 20.7429 20.8455 20.9552C22.2072 20.6041 23.0117 20.1232 23.0117 19.4941C23.0117 19.417 22.999 19.3405 22.9753 19.2649C22.3946 19.7585 21.1632 20.1221 19.4977 20.3715Z" fill="black"/>
<path d="M14.7956 21.0696C14.4405 21.0696 14.2424 20.9139 14.1113 20.8108C14.0109 20.7319 13.9734 20.7024 13.8616 20.7024C13.7498 20.7024 13.7122 20.7319 13.6119 20.8108C13.4809 20.9138 13.2828 21.0696 12.9277 21.0696C12.5725 21.0696 12.3744 20.9138 12.2434 20.8108C12.1431 20.7319 12.1056 20.7024 11.9938 20.7024C11.7996 20.7024 11.6422 20.545 11.6422 20.3508C11.6422 20.1566 11.7996 19.9993 11.9938 19.9993C12.3489 19.9993 12.5469 20.155 12.678 20.2581C12.7783 20.337 12.8158 20.3665 12.9277 20.3665C13.0395 20.3665 13.0771 20.337 13.1773 20.2581C13.3084 20.155 13.5064 19.9993 13.8616 19.9993C14.2167 19.9993 14.4148 20.155 14.5459 20.2581C14.6462 20.337 14.6838 20.3665 14.7956 20.3665C14.9075 20.3665 14.9451 20.337 15.0453 20.2581C15.1764 20.155 15.3744 19.9993 15.7297 19.9993C15.9239 19.9993 16.0812 20.1566 16.0812 20.3508C16.0812 20.545 15.9239 20.7024 15.7297 20.7024C15.6178 20.7024 15.5802 20.7319 15.48 20.8108C15.3489 20.9139 15.1508 21.0696 14.7956 21.0696Z" fill="#FAE8B4"/>
<path d="M4.68465 13.8662C5.52685 13.4836 6.37848 13.3082 7.10354 13.3281C7.0793 13.2574 7.05126 13.1881 7.01954 13.1205C6.49557 12.0033 5.07995 11.5478 3.85763 12.103C2.63532 12.6581 2.06926 14.0138 2.59323 15.131C2.62498 15.1987 2.66038 15.2647 2.69926 15.3286C3.15428 14.7726 3.84245 14.2487 4.68465 13.8662Z" fill="#59CC56"/>
<path opacity="0.2" d="M7.01957 13.1205C6.91528 12.8986 6.77258 12.6969 6.59807 12.5247C6.62714 12.5877 6.65305 12.6521 6.6757 12.7176C5.95059 12.6977 5.09901 12.8732 4.25681 13.2557C3.50109 13.599 2.87001 14.0562 2.41949 14.5481C2.45877 14.8246 2.55398 15.0901 2.69929 15.3285C3.15431 14.7726 3.84248 14.2487 4.68468 13.8662C5.52689 13.4836 6.37851 13.3082 7.10357 13.3281C7.07933 13.2574 7.05129 13.1881 7.01957 13.1205Z" fill="black"/>
<path d="M4.50844 12.1259C5.45766 12.3741 6.30413 12.7829 6.93403 13.2575C6.95035 13.19 6.96282 13.1206 6.97116 13.0492C7.10757 11.8825 6.10135 10.6447 4.72369 10.2845C3.34603 9.92434 2.11871 10.5781 1.9823 11.7447C1.974 11.816 1.96989 11.8877 1.96997 11.9595C2.67019 11.8327 3.55918 11.8777 4.50844 12.1259Z" fill="#59CC56"/>
<path opacity="0.2" d="M6.93403 12.4281C6.30413 11.9535 5.45766 11.5447 4.50844 11.2965C3.6586 11.0743 2.85746 11.0155 2.19638 11.0965C2.08477 11.2882 2.01028 11.5055 1.9823 11.7447C1.974 11.816 1.96989 11.8878 1.96997 11.9595C2.67019 11.8327 3.55918 11.8777 4.50844 12.1258C5.45766 12.374 6.30413 12.7829 6.93403 13.2575C6.95035 13.19 6.96282 13.1206 6.97116 13.0491C6.99586 12.8379 6.9826 12.6243 6.93694 12.414C6.93591 12.4187 6.93516 12.4235 6.93403 12.4281Z" fill="black"/>
<path d="M8.72535 12.677C9.64626 12.688 10.4827 12.8744 11.1191 13.1737C11.1291 13.1063 11.1352 13.0379 11.1374 12.9687C11.1718 11.8376 10.1163 10.9078 8.77973 10.8919C7.44318 10.8759 6.33178 11.7799 6.29732 12.911C6.29523 12.9794 6.29717 13.048 6.30314 13.1162C6.95723 12.8324 7.80445 12.666 8.72535 12.677Z" fill="#59CC56"/>
<path opacity="0.2" d="M8.8042 12.1052C7.88545 12.0943 7.03518 12.2477 6.35545 12.5136C6.32101 12.6433 6.30151 12.7766 6.29732 12.9109C6.29523 12.9793 6.29717 13.0479 6.30314 13.1161C6.95723 12.8323 7.80445 12.6659 8.72535 12.6769C9.64626 12.6879 10.4827 12.8744 11.1191 13.1736C11.1517 12.9549 11.1423 12.7319 11.0915 12.5167C10.4509 12.2674 9.66173 12.1155 8.8042 12.1052Z" fill="black"/>
<path d="M6.10885 14.1521C6.51415 14.1157 6.81222 13.7464 6.77459 13.3273C6.73697 12.9081 6.37789 12.5979 5.97258 12.6343C5.56728 12.6706 5.26921 13.0399 5.30684 13.459C5.34447 13.8782 5.70354 14.1884 6.10885 14.1521Z" fill="#E87941"/>
<path opacity="0.2" d="M5.76911 13.3472C5.65019 13.1568 5.62412 12.9328 5.67775 12.731C5.66373 12.739 5.64958 12.7467 5.63589 12.7558C5.29427 12.9825 5.19672 13.4535 5.41806 13.8079C5.63936 14.1623 6.09573 14.2659 6.43736 14.0392C6.59537 13.9343 6.70042 13.777 6.74655 13.6033C6.41036 13.7956 5.98159 13.6875 5.76911 13.3472Z" fill="black"/>
<path d="M7.42047 14.1764C7.85221 14.1376 8.16971 13.7443 8.12963 13.2978C8.08955 12.8513 7.70706 12.5208 7.27532 12.5596C6.84358 12.5983 6.52608 12.9917 6.56616 13.4382C6.60625 13.8846 6.98873 14.2151 7.42047 14.1764Z" fill="#E87941"/>
<path opacity="0.2" d="M7.04016 13.3472C6.90957 13.1381 6.8836 12.891 6.94791 12.671C6.93769 12.6772 6.92724 12.6826 6.91716 12.6892C6.55327 12.9307 6.44935 13.4325 6.68513 13.81C6.92087 14.1875 7.40701 14.2978 7.7709 14.0564C7.93327 13.9486 8.04343 13.789 8.09522 13.6118C7.73508 13.8277 7.26943 13.7143 7.04016 13.3472Z" fill="black"/>
</g>
<defs>
<clipPath id="clip0_2_694">
<rect width="24" height="24" fill="white"/>
</clipPath>
</defs>
</svg>
